<svg width="502" height="480" viewBox="0 0 502 480" fill="none" xmlns="http://www.w3.org/2000/svg">
<path d="M528.241 518.209C528.98 518.269 529.72 518.126 530.384 517.798C531.048 517.469 531.611 516.967 532.012 516.344C532.576 515.252 534.421 511.68 534.421 511.68L352.306 233.108C351.107 231.444 349.533 230.086 347.711 229.145C345.889 228.204 343.871 227.707 341.82 227.693L79.1676 240.012L265.731 530.497L528.241 518.209Z" fill="#FF8F08"/>
<path opacity="0.2" d="M528.241 518.209C528.98 518.269 529.72 518.126 530.384 517.798C531.048 517.469 531.611 516.967 532.012 516.344C532.576 515.252 534.421 511.68 534.421 511.68L352.306 233.108C351.107 231.444 349.533 230.086 347.711 229.145C345.889 228.204 343.871 227.707 341.82 227.693L79.1676 240.012L265.731 530.497L528.241 518.209Z" fill="white"/>
<path d="M530.581 513.678C534.33 513.519 535.739 510.79 533.708 507.625L354.62 228.626C353.422 226.962 351.848 225.604 350.026 224.663C348.204 223.722 346.185 223.225 344.135 223.211L81.5165 235.464L268.037 525.99L530.581 513.678Z" fill="#FF8F08"/>
<path opacity="0.5" d="M530.581 513.678C534.33 513.519 535.739 510.79 533.708 507.625L354.62 228.626C353.422 226.962 351.848 225.604 350.026 224.663C348.204 223.722 346.185 223.225 344.135 223.211L81.5165 235.464L268.037 525.99L530.581 513.678Z" fill="black"/>
<path d="M143.859 228.988L338.292 219.921C340.34 219.936 342.354 220.434 344.173 221.373C345.992 222.313 347.564 223.667 348.762 225.328L515.692 485.435L541.043 484.135L529.084 507.289L528.609 507.316C528.52 509.072 527.204 510.362 524.688 510.487L302.031 520.858L115.494 230.323L128.512 205.118L143.859 228.988Z" fill="#EBEBEB"/>
<path d="M537.723 485.249C541.472 485.09 542.881 482.361 540.849 479.196L361.78 200.123C360.582 198.462 359.01 197.107 357.191 196.168C355.372 195.229 353.358 194.731 351.31 194.715L128.512 205.118L315.049 495.653L537.723 485.249Z" fill="#FAFAFA"/>
<path d="M315.049 495.653L302.04 520.842L115.502 230.307L128.512 205.118L315.049 495.653Z" fill="#E6E6E6"/>
<path d="M317.353 484.377C317.803 485.003 318.34 485.562 318.947 486.038C319.823 486.827 320.889 487.377 322.04 487.635C322.411 487.749 322.8 487.794 323.187 487.767C325.276 487.777 325.823 486.07 324.533 484.104C323.93 483.218 323.145 482.47 322.231 481.91C321.175 481.178 319.926 480.773 318.641 480.747C318.493 480.733 318.344 480.766 318.216 480.841C316.606 481.078 316.17 482.53 317.353 484.377Z" fill="#263238"/>
<path d="M280.742 490.441C278.989 493.494 278.34 497.057 278.903 500.532C279.207 502.123 279.875 503.622 280.857 504.911C281.838 506.199 283.105 507.242 284.559 507.958C287.164 509.213 290.054 509.759 292.938 509.541C293.48 509.506 294.088 509.506 294.671 509.431L292.565 506.248C283.362 506.543 279.44 500.223 283.669 491.995C286.239 487.63 289.8 483.93 294.062 481.193C298.325 478.457 303.171 476.76 308.21 476.24C313.234 476.006 316.774 477.751 318.199 480.791C319.029 482.408 319.264 484.265 318.863 486.037C319.74 486.826 320.805 487.376 321.956 487.634C322.47 485.767 322.536 483.806 322.148 481.909C321.824 480.325 321.143 478.836 320.155 477.556C319.168 476.276 317.9 475.239 316.45 474.524C313.827 473.258 310.916 472.708 308.012 472.932C297.625 473.329 285.585 481.063 280.742 490.441Z" fill="#263238"/>
<path d="M300.551 470.503L552.787 476.122L551.078 479.43C550.561 480.316 549.842 481.067 548.98 481.623C548.118 482.179 547.137 482.523 546.116 482.628L298.194 475.068L300.551 470.503Z" fill="#FF8F08"/>
<path opacity="0.2" d="M300.551 470.503L552.787 476.122L551.078 479.43C550.561 480.316 549.842 481.067 548.98 481.623C548.118 482.179 547.137 482.523 546.116 482.628L298.194 475.068L300.551 470.503Z" fill="white"/>
<path d="M549.024 477.97C552.772 477.811 554.182 475.082 552.15 471.917L373.097 192.853C371.898 191.189 370.324 189.831 368.502 188.89C366.68 187.949 364.662 187.451 362.611 187.437L110.115 180.092L296.636 470.618L549.024 477.97Z" fill="#FF8F08"/>
<path opacity="0.2" d="M549.024 477.97C552.772 477.811 554.182 475.082 552.15 471.917L373.097 192.853C371.898 191.189 370.324 189.831 368.502 188.89C366.68 187.949 364.662 187.451 362.611 187.437L110.115 180.092L296.636 470.618L549.024 477.97Z" fill="black"/>
<path d="M265.697 530.522L79.1761 239.996L110.158 180.009L296.628 470.635L265.697 530.522Z" fill="#FF8F08"/>
<path d="M239.505 468.263C240.94 469.034 242.533 469.464 244.161 469.52C245.789 469.576 247.408 469.256 248.892 468.586C252.043 467.021 254.569 464.433 256.057 461.245C258.413 456.089 259.503 450.444 259.235 444.781C258.968 439.118 257.35 433.601 254.518 428.689C253.022 426.19 250.888 424.134 248.336 422.731C242.233 419.579 235.569 422.422 231.784 429.749C229.423 434.904 228.331 440.55 228.599 446.213C228.866 451.877 230.486 457.395 233.323 462.304C234.827 464.797 236.959 466.852 239.505 468.263Z" fill="#455A64"/>
<path d="M253.03 459.682C248.759 467.952 241.246 468.261 236.194 460.477C233.684 456.068 232.25 451.128 232.009 446.06C231.769 440.992 232.729 435.939 234.811 431.312C239.082 423.043 246.596 422.733 251.647 430.517C254.149 434.929 255.578 439.868 255.818 444.934C256.058 450.001 255.103 455.053 253.03 459.682Z" fill="#F5F5F5"/>
<path d="M221.508 405.145L219.167 409.677C214.469 418.773 206.205 419.156 200.656 410.592L107.051 264.679C101.535 256.09 100.857 241.745 105.547 232.665L107.896 228.116C112.585 219.037 120.866 218.662 126.407 227.202L220.021 373.098C225.536 381.729 226.197 396.066 221.508 405.145Z" fill="#F5F5F5"/>
<path d="M269.745 530.35L300.539 470.728L296.627 470.635L265.697 530.522L269.745 530.35Z" fill="#FF8F08"/>
<path opacity="0.2" d="M269.745 530.35L300.539 470.728L296.627 470.635L265.697 530.522L269.745 530.35Z" fill="white"/>
<path d="M118.913 168.21C118.604 168.983 118.482 169.817 118.556 170.646C118.631 171.474 118.9 172.273 119.341 172.978L302.672 458.526C303.194 459.25 303.88 459.841 304.673 460.25C305.466 460.66 306.344 460.877 307.237 460.883L566.019 463.074L568.403 458.46L381.99 167.927L123.123 165.818C122.282 165.855 121.462 166.092 120.73 166.508C119.998 166.923 119.375 167.507 118.913 168.21Z" fill="#FF8F08"/>
<path opacity="0.5" d="M568.469 458.494L309.769 456.387C308.875 456.354 308 456.123 307.205 455.713C306.41 455.303 305.716 454.722 305.171 454.013L121.79 168.439C121.564 168.204 121.418 167.904 121.371 167.581C121.324 167.258 121.379 166.929 121.529 166.639C121.679 166.349 121.915 166.113 122.206 165.964C122.496 165.816 122.826 165.762 123.149 165.81L382.039 168.035L568.469 458.494Z" fill="black"/>
<path opacity="0.2" d="M568.469 458.494L566.111 463.059L307.428 460.919C306.528 460.931 305.64 460.704 304.856 460.261L307.205 455.713C307.985 456.161 308.87 456.393 309.769 456.387L568.469 458.494Z" fill="white"/>
<path d="M564.378 458.748L377.857 168.222L408.848 108.219L595.001 399.456L564.378 458.748Z" fill="#FF8F08"/>
<path opacity="0.7" d="M564.378 458.748L377.857 168.222L408.848 108.219L595.001 399.456L564.378 458.748Z" fill="black"/>
<path d="M138.481 137.421C137.368 137.537 136.299 137.913 135.359 138.52C134.42 139.127 133.636 139.947 133.073 140.913L126.803 153.053C126.338 154.071 126.122 155.184 126.171 156.302C126.22 157.42 126.533 158.511 127.086 159.484L309.709 443.765C310.361 444.67 311.218 445.409 312.209 445.921C313.201 446.433 314.299 446.704 315.415 446.712L537.941 442.475L547.611 423.753L361.165 133.203L138.481 137.421Z" fill="#EBEBEB"/>
<path d="M361.165 133.203L138.481 137.421C138.072 137.352 137.653 137.415 137.282 137.6C136.912 137.785 136.609 138.084 136.419 138.452C136.229 138.82 136.161 139.238 136.224 139.648C136.288 140.057 136.48 140.436 136.772 140.729L319.378 425.043C320.031 425.949 320.887 426.687 321.879 427.199C322.87 427.712 323.969 427.982 325.084 427.99L547.611 423.753L361.165 133.203Z" fill="#FAFAFA"/>
<path d="M321.857 427.14L312.179 445.879C311.159 445.391 310.278 444.656 309.618 443.739L127.078 159.459C126.538 158.482 126.233 157.394 126.187 156.279C126.14 155.164 126.355 154.054 126.812 153.036L133.099 140.864C133.584 140.047 134.228 139.337 134.994 138.775C135.759 138.212 136.63 137.81 137.554 137.592C136.259 137.991 135.876 139.218 136.773 140.687L319.387 425.026C319.993 425.951 320.85 426.684 321.857 427.14Z" fill="#E6E6E6"/>
<path d="M138.593 130.105C138.284 130.879 138.16 131.716 138.233 132.547C138.306 133.378 138.574 134.18 139.014 134.889L322.345 420.436C322.867 421.161 323.552 421.751 324.345 422.161C325.138 422.571 326.017 422.788 326.909 422.794L596.856 403.369L599.214 398.804L412.793 108.287L142.804 127.712C141.964 127.752 141.145 127.99 140.413 128.406C139.682 128.821 139.058 129.403 138.593 130.105Z" fill="#FF8F08"/>
<path d="M599.28 398.838L329.424 418.331C328.524 418.343 327.636 418.116 326.852 417.673C326.031 417.299 325.33 416.705 324.826 415.957L141.463 130.35C141.241 130.112 141.098 129.81 141.054 129.488C141.009 129.165 141.066 128.836 141.215 128.547C141.365 128.257 141.6 128.021 141.889 127.87C142.178 127.719 142.506 127.661 142.829 127.704L412.876 108.33L599.28 398.838Z" fill="#FF8F08"/>
<path opacity="0.2" d="M599.28 398.838L329.424 418.331C328.524 418.343 327.636 418.116 326.852 417.673C326.031 417.299 325.33 416.705 324.826 415.957L141.463 130.35C141.241 130.112 141.098 129.81 141.054 129.488C141.009 129.165 141.066 128.836 141.215 128.547C141.365 128.257 141.6 128.021 141.889 127.87C142.178 127.719 142.506 127.661 142.829 127.704L412.876 108.33L599.28 398.838Z" fill="black"/>
<path opacity="0.2" d="M599.28 398.838L596.922 403.403L327.075 422.88C326.175 422.889 325.288 422.662 324.503 422.221L326.852 417.673C327.636 418.116 328.523 418.343 329.424 418.331L599.28 398.838Z" fill="white"/>
<path d="M327.014 404.663L579.203 392.806C579.849 392.74 580.47 392.523 581.016 392.171C581.562 391.819 582.017 391.343 582.343 390.782L583.42 388.698C583.688 388.107 583.813 387.461 583.784 386.812C583.755 386.163 583.573 385.531 583.252 384.966L414.879 122.501C414.5 121.977 414.003 121.55 413.429 121.253C412.854 120.956 412.218 120.799 411.571 120.793L159.316 132.574C158.669 132.647 158.048 132.869 157.502 133.223C156.955 133.578 156.499 134.053 156.167 134.614L155.048 136.781C154.783 137.372 154.66 138.018 154.689 138.666C154.718 139.315 154.898 139.947 155.216 140.513L323.689 402.946C324.069 403.473 324.568 403.904 325.146 404.202C325.724 404.5 326.363 404.658 327.014 404.663Z" fill="#F5F5F5"/>
<path d="M158.833 132.659C158.6 132.706 158.372 132.778 158.155 132.875L157.82 133.037C157.486 133.221 157.171 133.437 156.879 133.683C156.704 133.843 156.548 134.022 156.414 134.218C156.327 134.347 156.256 134.486 156.201 134.631L155.09 136.781C154.819 137.372 154.692 138.019 154.722 138.668C154.751 139.317 154.935 139.95 155.258 140.513L323.706 402.955C324.072 403.491 324.571 403.922 325.155 404.206L328.256 398.202C327.675 397.914 327.177 397.483 326.807 396.951L158.317 134.509C157.729 133.619 158.088 132.924 158.833 132.659Z" fill="#F0F0F0"/>
<path d="M583.538 385.428C583.744 386.205 583.27 386.798 582.27 386.868L330.115 398.659C329.466 398.671 328.825 398.514 328.256 398.202L325.155 404.205C325.724 404.517 326.365 404.675 327.014 404.663L579.203 392.806C579.851 392.744 580.474 392.529 581.02 392.177C581.567 391.824 582.02 391.346 582.344 390.782L583.42 388.698C583.659 388.189 583.793 387.637 583.813 387.075C583.833 386.513 583.74 385.953 583.538 385.428Z" fill="#E0E0E0"/>
<path d="M414.253 140.509L360.379 143.042L362.484 146.308L416.358 143.775L414.253 140.509Z" fill="#FF8F08"/>
<path d="M418.454 147.058L337.64 150.845L339.737 154.127L420.551 150.341L418.454 147.058Z" fill="#FF8F08"/>
<path d="M422.656 153.607L350.83 156.987L352.935 160.253L424.769 156.898L422.656 153.607Z" fill="#FF8F08"/>
<path d="M501.275 276.129L270.37 286.975L275.763 295.396L506.684 284.559L501.275 276.129Z" fill="#FF8F08"/>
<path opacity="0.4" d="M501.275 276.129L270.37 286.975L275.763 295.396L506.684 284.559L501.275 276.129Z" fill="white"/>
<path d="M277.701 296.103L505.765 285.404L512.912 296.553L284.848 307.253L277.701 296.103ZM275.771 295.379L283.88 308.073L514.776 297.244L506.667 284.55L275.771 295.379Z" fill="#FF8F08"/>
<path d="M437.18 300.723L438.343 300.256L430.756 288.417L429.592 288.885L437.18 300.723Z" fill="#FF8F08"/>
<path d="M361.031 304.28L362.211 303.82L354.565 291.932L353.411 292.383L361.031 304.28Z" fill="#FF8F08"/>
<path d="M285.329 308.067L513.393 297.368L520.54 308.517L292.502 319.167L285.329 308.067ZM283.415 307.351L291.533 320.029L522.429 309.2L514.269 296.605L283.432 307.318L283.415 307.351Z" fill="#FF8F08"/>
<path d="M444.833 312.637L446.013 312.178L438.4 300.348L437.246 300.799L444.833 312.637Z" fill="#FF8F08"/>
<path d="M368.676 316.211L369.856 315.751L362.219 303.846L361.056 304.314L368.676 316.211Z" fill="#FF8F08"/>
<path d="M292.999 319.948L521.054 309.265L528.21 320.398L300.146 331.098L292.999 319.948ZM291.077 319.248L299.194 331.926L530.173 321.14L522.064 308.446L291.159 319.291L291.077 319.248Z" fill="#FF8F08"/>
<path d="M452.477 324.568L453.657 324.109L446.07 312.271L444.89 312.73L452.477 324.568Z" fill="#FF8F08"/>
<path d="M376.345 328.133L377.509 327.665L369.863 315.776L368.7 316.244L376.345 328.133Z" fill="#FF8F08"/>
<path d="M300.643 331.878L528.707 321.179L535.854 332.329L307.799 343.012L300.643 331.878ZM298.729 331.162L306.839 343.856L537.76 333.019L529.642 320.342L298.729 331.162Z" fill="#FF8F08"/>
<path d="M460.13 336.481L461.31 336.022L453.714 324.201L452.543 324.643L460.13 336.481Z" fill="#FF8F08"/>
<path d="M383.99 340.063L385.153 339.596L377.516 327.69L376.353 328.158L383.99 340.063Z" fill="#FF8F08"/>
<path d="M314.456 353.447L390.255 349.878L399.736 364.663L323.986 368.258L314.456 353.447ZM312.421 352.396L323.223 369.247L401.855 365.548L391.053 348.698L312.428 352.505L312.421 352.396Z" fill="#FF8F08"/>
<path d="M549.249 350.895L432.597 356.369L437.141 363.471L553.793 357.998L549.249 350.895Z" fill="#FF8F08"/>
<path d="M310.367 152.661L193.715 158.134L198.268 165.221L314.937 159.755L310.367 152.661Z" fill="#FF8F08"/>
<path d="M338.258 228.828L236.143 233.618L241.553 242.048L343.668 237.258L338.258 228.828Z" fill="#FF8F08"/>
<path opacity="0.4" d="M338.258 228.828L236.143 233.618L241.553 242.048L343.668 237.258L338.258 228.828Z" fill="white"/>
<path d="M261.755 253.76L253.641 254.137L249.342 247.412L257.439 247.026L261.755 253.76ZM254.151 253.394L260.34 253.092L256.93 247.769L250.74 248.071L254.151 253.394Z" fill="#FF8F08"/>
<path d="M269.8 266.295L261.686 266.672L257.387 259.947L265.484 259.562L269.8 266.295ZM262.195 265.929L268.385 265.627L264.975 260.304L258.785 260.606L262.195 265.929Z" fill="#FF8F08"/>
<path d="M277.844 278.83L269.73 279.207L265.431 272.482L273.528 272.097L277.844 278.83ZM270.239 278.464L276.429 278.162L273.019 272.839L266.829 273.141L270.239 278.464Z" fill="#FF8F08"/>
<path d="M344.662 245.23C344.565 245.284 344.456 245.314 344.345 245.317L263.697 249.106C263.624 249.117 263.549 249.111 263.477 249.09C263.406 249.068 263.34 249.032 263.284 248.983C263.228 248.934 263.183 248.874 263.152 248.806C263.121 248.739 263.105 248.665 263.105 248.591C263.121 248.432 263.198 248.285 263.318 248.18C263.438 248.076 263.594 248.02 263.753 248.025L344.359 244.277C344.434 244.267 344.51 244.273 344.583 244.295C344.655 244.317 344.723 244.353 344.78 244.403C344.838 244.452 344.884 244.513 344.916 244.582C344.949 244.651 344.966 244.725 344.968 244.801C344.951 244.89 344.915 244.975 344.862 245.049C344.809 245.123 344.741 245.185 344.662 245.23Z" fill="#E0E0E0"/>
<path d="M346.702 248.42C346.605 248.475 346.496 248.505 346.384 248.508L265.745 252.28C265.672 252.292 265.598 252.287 265.526 252.268C265.455 252.248 265.389 252.213 265.332 252.166C265.275 252.119 265.229 252.06 265.197 251.994C265.164 251.928 265.146 251.855 265.144 251.781C265.161 251.62 265.238 251.47 265.36 251.363C265.481 251.255 265.639 251.196 265.801 251.199L346.415 247.434C346.49 247.424 346.567 247.431 346.639 247.452C346.712 247.474 346.779 247.511 346.837 247.56C346.894 247.61 346.94 247.671 346.973 247.739C347.005 247.808 347.023 247.883 347.024 247.958C347.008 248.055 346.971 248.146 346.916 248.226C346.86 248.306 346.787 248.372 346.702 248.42Z" fill="#E0E0E0"/>
<path d="M352.707 257.765C352.61 257.819 352.501 257.849 352.39 257.852L271.775 261.658C271.701 261.669 271.626 261.663 271.555 261.642C271.484 261.621 271.418 261.584 271.361 261.535C271.305 261.487 271.26 261.426 271.229 261.359C271.198 261.291 271.182 261.217 271.182 261.143C271.197 260.985 271.27 260.839 271.387 260.733C271.504 260.627 271.656 260.568 271.814 260.568L352.403 256.812C352.478 256.802 352.555 256.808 352.627 256.83C352.7 256.852 352.767 256.889 352.825 256.938C352.882 256.987 352.929 257.048 352.961 257.117C352.993 257.186 353.011 257.26 353.012 257.336C352.995 257.425 352.959 257.51 352.906 257.584C352.854 257.658 352.786 257.72 352.707 257.765Z" fill="#E0E0E0"/>
<path d="M354.747 260.956C354.65 261.01 354.541 261.04 354.429 261.043L273.79 264.816C273.717 264.827 273.643 264.823 273.572 264.803C273.5 264.783 273.434 264.749 273.377 264.702C273.32 264.654 273.274 264.596 273.242 264.529C273.209 264.463 273.191 264.39 273.189 264.316C273.206 264.155 273.283 264.006 273.405 263.898C273.526 263.79 273.684 263.732 273.846 263.734L354.46 259.969C354.535 259.96 354.612 259.966 354.684 259.988C354.757 260.009 354.824 260.046 354.882 260.096C354.939 260.145 354.986 260.206 355.018 260.275C355.05 260.343 355.068 260.418 355.069 260.494C355.054 260.59 355.016 260.681 354.961 260.761C354.905 260.841 354.832 260.908 354.747 260.956Z" fill="#E0E0E0"/>
<path d="M360.744 270.317C360.646 270.359 360.541 270.383 360.435 270.388L279.787 274.177C279.713 274.187 279.638 274.181 279.567 274.16C279.495 274.139 279.43 274.103 279.373 274.054C279.317 274.005 279.272 273.945 279.241 273.877C279.21 273.809 279.194 273.736 279.194 273.661C279.209 273.504 279.282 273.358 279.399 273.251C279.516 273.145 279.668 273.086 279.826 273.087L360.448 269.347C360.523 269.34 360.598 269.349 360.67 269.371C360.741 269.394 360.807 269.431 360.864 269.48C360.921 269.529 360.967 269.589 361.001 269.656C361.034 269.723 361.053 269.797 361.057 269.871C361.038 269.963 361 270.05 360.946 270.127C360.892 270.203 360.823 270.268 360.744 270.317Z" fill="#E0E0E0"/>
<path d="M362.791 273.491C362.694 273.545 362.585 273.575 362.473 273.578L281.826 277.367C281.753 277.374 281.679 277.366 281.609 277.344C281.538 277.322 281.474 277.285 281.418 277.237C281.363 277.189 281.318 277.13 281.286 277.063C281.254 276.997 281.236 276.925 281.233 276.851C281.248 276.694 281.321 276.548 281.438 276.441C281.554 276.335 281.707 276.276 281.865 276.277L362.537 272.521C362.612 272.512 362.689 272.518 362.761 272.54C362.834 272.561 362.901 272.598 362.959 272.648C363.016 272.697 363.063 272.758 363.095 272.827C363.127 272.895 363.145 272.97 363.146 273.046C363.126 273.142 363.083 273.233 363.022 273.31C362.96 273.388 362.881 273.449 362.791 273.491Z" fill="#E0E0E0"/>
<path d="M467.056 222.798L364.924 227.579L370.334 236.009L472.449 231.219L467.056 222.798Z" fill="#FF8F08"/>
<path opacity="0.4" d="M467.056 222.798L364.924 227.579L370.334 236.009L472.449 231.219L467.056 222.798Z" fill="white"/>
<path d="M390.561 247.713L382.439 248.106L378.123 241.372L386.237 240.996L390.561 247.713ZM382.956 247.347L389.138 247.061L385.727 241.738L379.538 242.04L382.956 247.347Z" fill="#FF8F08"/>
<path d="M398.597 260.265L390.484 260.641L386.168 253.908L394.281 253.531L398.597 260.265ZM390.959 259.965L397.14 259.68L393.729 254.357L387.54 254.658L390.959 259.965Z" fill="#FF8F08"/>
<path d="M406.625 272.791L398.528 273.176L394.212 266.443L402.326 266.066L406.625 272.791ZM399.003 272.5L405.184 272.214L401.774 266.891L395.584 267.193L399.003 272.5Z" fill="#FF8F08"/>
<path d="M473.444 239.191C473.349 239.251 473.238 239.282 473.126 239.278L392.437 243.025C392.363 243.036 392.287 243.031 392.214 243.011C392.142 242.991 392.074 242.956 392.016 242.908C391.958 242.86 391.91 242.801 391.877 242.734C391.843 242.666 391.823 242.593 391.82 242.518C391.841 242.358 391.919 242.211 392.039 242.104C392.16 241.997 392.315 241.937 392.477 241.935L473.116 238.163C473.19 238.153 473.265 238.158 473.336 238.179C473.407 238.201 473.473 238.237 473.529 238.286C473.586 238.335 473.631 238.395 473.661 238.463C473.692 238.53 473.708 238.604 473.708 238.678C473.717 238.78 473.697 238.882 473.65 238.973C473.603 239.064 473.532 239.139 473.444 239.191Z" fill="#E0E0E0"/>
<path d="M475.483 242.381C475.386 242.435 475.277 242.465 475.166 242.469L394.543 246.25C394.468 246.259 394.391 246.253 394.319 246.231C394.246 246.21 394.179 246.173 394.121 246.124C394.064 246.074 394.018 246.013 393.985 245.944C393.953 245.876 393.935 245.801 393.934 245.725C393.958 245.57 394.037 245.428 394.155 245.325C394.274 245.221 394.425 245.163 394.582 245.16L475.221 241.387C475.294 241.376 475.369 241.38 475.44 241.4C475.511 241.419 475.578 241.454 475.635 241.501C475.691 241.548 475.738 241.607 475.77 241.673C475.802 241.74 475.82 241.812 475.823 241.886C475.817 241.992 475.782 242.094 475.722 242.181C475.662 242.269 475.58 242.338 475.483 242.381Z" fill="#E0E0E0"/>
<path d="M481.488 251.726C481.394 251.787 481.283 251.817 481.171 251.814L400.589 255.637C400.514 255.647 400.438 255.64 400.365 255.619C400.293 255.597 400.225 255.56 400.168 255.511C400.11 255.461 400.064 255.4 400.032 255.332C399.999 255.263 399.982 255.188 399.98 255.113C400.001 254.956 400.078 254.812 400.198 254.707C400.317 254.603 400.47 254.546 400.629 254.547L481.276 250.758C481.35 250.748 481.425 250.753 481.496 250.774C481.568 250.796 481.634 250.832 481.69 250.881C481.746 250.93 481.791 250.99 481.822 251.058C481.853 251.125 481.869 251.199 481.869 251.273C481.857 251.378 481.814 251.476 481.746 251.557C481.679 251.637 481.589 251.696 481.488 251.726Z" fill="#E0E0E0"/>
<path d="M483.528 254.917C483.433 254.977 483.323 255.007 483.21 255.004L402.588 258.785C402.513 258.795 402.436 258.788 402.364 258.767C402.291 258.745 402.224 258.708 402.166 258.659C402.109 258.609 402.062 258.548 402.03 258.48C401.998 258.411 401.98 258.337 401.979 258.261C401.999 258.104 402.077 257.96 402.196 257.855C402.315 257.751 402.469 257.694 402.627 257.695L483.2 253.888C483.273 253.877 483.348 253.881 483.419 253.901C483.49 253.92 483.556 253.955 483.613 254.002C483.67 254.049 483.716 254.108 483.749 254.174C483.781 254.241 483.799 254.313 483.801 254.387C483.808 254.492 483.786 254.597 483.738 254.69C483.69 254.783 483.617 254.861 483.528 254.917Z" fill="#E0E0E0"/>
<path d="M489.533 264.261C489.438 264.322 489.328 264.352 489.215 264.349L408.584 268.146C408.509 268.156 408.433 268.15 408.36 268.128C408.287 268.106 408.22 268.07 408.163 268.02C408.105 267.971 408.059 267.91 408.026 267.841C407.994 267.772 407.977 267.698 407.975 267.622C407.996 267.465 408.073 267.321 408.193 267.217C408.312 267.113 408.465 267.055 408.624 267.056L489.271 263.267C489.345 263.257 489.42 263.263 489.491 263.284C489.563 263.305 489.629 263.341 489.685 263.39C489.741 263.439 489.786 263.499 489.817 263.567C489.848 263.635 489.864 263.708 489.864 263.783C489.86 263.886 489.827 263.986 489.768 264.07C489.71 264.155 489.628 264.221 489.533 264.261Z" fill="#E0E0E0"/>
<path d="M491.572 267.452C491.478 267.512 491.367 267.542 491.255 267.539L410.632 271.32C410.558 271.331 410.482 271.326 410.409 271.306C410.337 271.286 410.269 271.251 410.211 271.203C410.153 271.155 410.105 271.096 410.071 271.028C410.038 270.961 410.018 270.888 410.015 270.812C410.036 270.652 410.114 270.505 410.234 270.398C410.355 270.291 410.51 270.232 410.672 270.23L491.36 266.483C491.434 266.473 491.509 266.479 491.58 266.5C491.652 266.521 491.718 266.557 491.774 266.606C491.83 266.655 491.875 266.715 491.906 266.783C491.937 266.851 491.953 266.924 491.953 266.999C491.938 267.102 491.895 267.2 491.828 267.28C491.76 267.36 491.672 267.419 491.572 267.452Z" fill="#E0E0E0"/>
<path d="M447.01 191.557L216.114 202.386L221.506 210.807L452.419 199.986L447.01 191.557Z" fill="#FF8F08"/>
<path opacity="0.4" d="M447.01 191.557L216.114 202.386L221.506 210.807L452.419 199.986L447.01 191.557Z" fill="white"/>
<path d="M340.05 212.134C339.96 212.191 339.856 212.224 339.75 212.23L230.236 217.39C230.163 217.401 230.089 217.397 230.018 217.377C229.946 217.357 229.88 217.323 229.823 217.276C229.766 217.228 229.72 217.17 229.688 217.103C229.655 217.037 229.638 216.964 229.635 216.89C229.654 216.732 229.729 216.585 229.846 216.477C229.964 216.368 230.116 216.305 230.276 216.299L339.789 211.14C339.862 211.13 339.938 211.136 340.009 211.157C340.08 211.178 340.146 211.214 340.202 211.263C340.258 211.312 340.304 211.372 340.334 211.44C340.365 211.508 340.381 211.581 340.381 211.656C340.378 211.759 340.345 211.859 340.286 211.943C340.227 212.028 340.146 212.095 340.05 212.134Z" fill="#E0E0E0"/>
<path d="M454.412 211.868C454.315 211.922 454.206 211.952 454.094 211.955L233.419 222.343C233.344 222.353 233.267 222.347 233.195 222.325C233.122 222.303 233.055 222.267 232.997 222.217C232.94 222.168 232.893 222.107 232.861 222.038C232.829 221.97 232.811 221.895 232.81 221.819C232.83 221.662 232.908 221.518 233.027 221.414C233.146 221.31 233.3 221.253 233.458 221.253L454.125 210.881C454.199 210.87 454.275 210.875 454.348 210.895C454.421 210.915 454.488 210.951 454.546 210.998C454.604 211.046 454.652 211.106 454.686 211.173C454.72 211.24 454.739 211.314 454.743 211.389C454.726 211.488 454.687 211.582 454.63 211.665C454.573 211.748 454.499 211.817 454.412 211.868Z" fill="#E0E0E0"/>
<path d="M457.398 216.51C457.298 216.559 457.19 216.588 457.08 216.598L236.322 226.943C236.248 226.954 236.173 226.948 236.102 226.927C236.031 226.906 235.965 226.869 235.909 226.82C235.852 226.772 235.807 226.711 235.776 226.644C235.746 226.576 235.73 226.502 235.729 226.428C235.75 226.271 235.828 226.127 235.947 226.023C236.066 225.918 236.219 225.861 236.378 225.862L457.119 215.508C457.193 215.497 457.268 215.503 457.34 215.524C457.411 215.546 457.477 215.582 457.533 215.631C457.589 215.68 457.634 215.74 457.665 215.808C457.696 215.875 457.712 215.949 457.712 216.023C457.706 216.125 457.673 216.222 457.618 216.308C457.563 216.393 457.487 216.463 457.398 216.51Z" fill="#E0E0E0"/>
<path d="M319.246 179.726C319.146 179.773 319.038 179.803 318.928 179.813L209.415 184.973C209.34 184.982 209.263 184.976 209.191 184.954C209.118 184.933 209.051 184.896 208.993 184.846C208.936 184.797 208.89 184.736 208.857 184.667C208.825 184.599 208.807 184.524 208.806 184.448C208.827 184.291 208.904 184.147 209.023 184.043C209.143 183.939 209.296 183.882 209.454 183.882L318.967 178.723C319.04 178.712 319.115 178.716 319.186 178.736C319.257 178.755 319.324 178.79 319.38 178.837C319.437 178.884 319.483 178.943 319.516 179.01C319.548 179.076 319.566 179.148 319.568 179.222C319.566 179.328 319.534 179.43 319.477 179.519C319.42 179.608 319.34 179.68 319.246 179.726Z" fill="#E0E0E0"/>
<path d="M433.649 179.46C433.549 179.508 433.441 179.537 433.331 179.547L212.49 189.85C212.417 189.86 212.342 189.855 212.27 189.833C212.199 189.812 212.133 189.776 212.077 189.727C212.021 189.678 211.976 189.618 211.945 189.55C211.914 189.482 211.898 189.409 211.898 189.334C211.918 189.177 211.996 189.033 212.115 188.929C212.234 188.825 212.388 188.768 212.546 188.769L433.337 178.44C433.411 178.43 433.486 178.435 433.557 178.457C433.629 178.478 433.695 178.514 433.751 178.563C433.807 178.612 433.852 178.672 433.883 178.74C433.914 178.808 433.93 178.881 433.93 178.956C433.93 179.057 433.904 179.156 433.854 179.244C433.805 179.332 433.734 179.406 433.649 179.46Z" fill="#E0E0E0"/>
<path d="M436.585 184.077C436.49 184.137 436.379 184.168 436.267 184.164L215.534 194.502C215.459 194.512 215.383 194.506 215.31 194.484C215.237 194.462 215.17 194.425 215.113 194.376C215.055 194.326 215.009 194.265 214.976 194.197C214.944 194.128 214.926 194.054 214.925 193.978C214.949 193.822 215.028 193.68 215.146 193.577C215.265 193.474 215.416 193.415 215.573 193.412L436.332 183.066C436.405 183.056 436.48 183.062 436.552 183.083C436.623 183.104 436.689 183.14 436.745 183.189C436.801 183.238 436.846 183.298 436.877 183.366C436.908 183.434 436.924 183.507 436.924 183.582C436.923 183.689 436.89 183.793 436.83 183.881C436.769 183.969 436.684 184.037 436.585 184.077Z" fill="#E0E0E0"/>
</svg>
