
<svg width="100" height="100" viewBox="0 0 100 100" fill="none" xmlns="http://www.w3.org/2000/svg">
<circle cx="50" cy="50" r="50" fill="#0055A4"/>
<path d="M49.2191 49.2188C46.5693 49.2188 44.301 48.2754 42.4141 46.3884C40.5271 44.5015 39.5837 42.2332 39.5837 39.5834C39.5837 36.9337 40.5271 34.6653 42.4141 32.7784C44.301 30.8915 46.5693 29.948 49.2191 29.948C51.8688 29.948 54.1371 30.8915 56.0241 32.7784C57.911 34.6653 58.8545 36.9337 58.8545 39.5834C58.8545 42.2332 57.911 44.5015 56.0241 46.3884C54.1371 48.2754 51.8688 49.2188 49.2191 49.2188ZM29.9482 68.4897V61.7449C29.9482 60.3799 30.2999 59.1256 31.0033 57.9822C31.7067 56.8388 32.6397 55.9652 33.8024 55.3614C36.2916 54.1168 38.8209 53.1838 41.3903 52.5623C43.9597 51.9408 46.5693 51.6293 49.2191 51.6277C51.8688 51.6261 54.4784 51.9376 57.0478 52.5623C59.6173 53.187 62.1466 54.12 64.6357 55.3614C65.8 55.9636 66.7339 56.8372 67.4372 57.9822C68.1406 59.1272 68.4915 60.3815 68.4899 61.7449V68.4897H29.9482Z" fill="white"/>
<circle cx="78.125" cy="9.375" r="9.375" fill="#EF5400"/>
</svg>
