<svg width="1120" height="791" viewBox="0 0 1120 791" fill="none" xmlns="http://www.w3.org/2000/svg">
<g clip-path="url(#clip0_223_200)">
<g filter="url(#filter0_f_223_200)">
<path d="M968 632.273C968 760.268 733.914 941 547.512 941C361.109 941 210 837.24 210 709.245C210 581.25 361.109 493 547.512 493C733.914 493 968 504.278 968 632.273Z" fill="white" fill-opacity="0.26"/>
</g>
<path d="M871.025 343H546.082V628.425H871.025V343Z" fill="#E6E6E6"/>
<path d="M879.517 343H550.052V628.425H879.517V343Z" fill="#F0F0F0"/>
<path d="M871.025 628.408H546.082V636.282H871.025V628.408Z" fill="#E6E6E6"/>
<path d="M893.63 628.408H564.165V636.282H893.63V628.408Z" fill="#F0F0F0"/>
<path d="M867.639 616.564V354.861H561.913V616.564H867.639Z" fill="#1F3D6D"/>
<path d="M602.833 616.547L636.547 354.861H694.916L661.186 616.547H602.833Z" fill="white" fill-opacity="0.55"/>
<path d="M673.714 616.547L707.445 354.861H730.198L696.468 616.547H673.714Z" fill="white"/>
<path d="M867.656 616.547V354.844H866.154V616.547H867.656Z" fill="#E6E6E6"/>
<path opacity="0.5" d="M882.302 379.8H557.358L556.274 359.465H881.218L882.302 379.8Z" fill="#E0E0E0"/>
<path opacity="0.5" d="M882.302 413.213H557.358L556.274 392.895H881.218L882.302 413.213Z" fill="#E0E0E0"/>
<path opacity="0.5" d="M882.302 446.627H557.358L556.274 426.309H881.218L882.302 446.627Z" fill="#E0E0E0"/>
<path opacity="0.5" d="M882.302 480.057H557.358L556.274 459.722H881.218L882.302 480.057Z" fill="#E0E0E0"/>
<path opacity="0.5" d="M882.302 513.471H557.358L556.274 493.136H881.218L882.302 513.471Z" fill="#E0E0E0"/>
<path opacity="0.5" d="M882.302 546.884H557.358L556.274 526.549H881.218L882.302 546.884Z" fill="#E0E0E0"/>
<path d="M364.834 402.954H263.326V603.652H364.834V402.954Z" fill="#E0E0E0"/>
<path d="M370.857 402.954H267.346V603.652H370.857V402.954Z" fill="#F5F5F5"/>
<path d="M276.004 414.565V592.042H362.165V414.565H276.004Z" fill="#1F3D6D"/>
<path d="M500.357 372.326H398.849V573.025H500.357V372.326Z" fill="#E0E0E0"/>
<path d="M506.379 372.326H402.869V573.025H506.379V372.326Z" fill="#F5F5F5"/>
<path d="M411.543 383.937V561.414H497.721V383.937H411.543Z" fill="#1F3D6D"/>
<path d="M482.324 662.856H439.602V847.823H482.324V662.856Z" fill="#E6E6E6"/>
<path d="M322.629 662.856H279.907V847.823H322.629V662.856Z" fill="#E6E6E6"/>
<path d="M482.324 662.856H315.54V836.263H482.324V662.856Z" fill="#F0F0F0"/>
<path d="M401.651 674.383V812.708H476.018V674.383H401.651Z" fill="#E6E6E6"/>
<path d="M321.828 674.383V812.708H396.196V674.383H321.828Z" fill="#E6E6E6"/>
<path d="M366.386 679.671H351.673C345.507 679.732 339.519 677.604 334.774 673.666H383.284C378.54 677.604 372.552 679.732 366.386 679.671Z" fill="#F0F0F0"/>
<path d="M446.959 679.671H432.246C426.079 679.735 420.091 677.606 415.347 673.666H463.858C459.113 677.604 453.125 679.732 446.959 679.671Z" fill="#F0F0F0"/>
<path d="M354.692 645.206C354.692 645.206 355.96 662.856 404.587 662.856C453.214 662.856 454.482 645.206 454.482 645.206H354.692Z" fill="#E6E6E6"/>
<path d="M546.365 724.328H911.396V693.767H546.365V724.328Z" fill="#EBEBEB"/>
<path d="M546.382 724.328H649.992V693.767H546.382V724.328Z" fill="#E0E0E0"/>
<path d="M889.559 847.823H911.412V724.328H889.559V847.823Z" fill="#EBEBEB"/>
<path d="M889.559 732.886L911.412 728.615V724.328H889.559V732.886Z" fill="#E0E0E0"/>
<path d="M546.365 847.823H568.218V724.328H546.365V847.823Z" fill="#E0E0E0"/>
<path d="M628.139 847.823H649.992V724.328H628.139V847.823Z" fill="#EBEBEB"/>
<path d="M628.139 732.886L649.992 728.615V724.328H628.139V732.886Z" fill="#E0E0E0"/>
<path d="M821.147 847.823H843V724.328H821.147V847.823Z" fill="#E0E0E0"/>
<path d="M410.099 726.23C395.696 645.837 389.693 548.912 389.693 548.912L466.458 547.702C466.458 547.702 459.894 678.339 456.714 733.062C453.421 789.936 451.114 899.427 451.114 899.427H424.637C424.637 899.427 402.102 796.566 410.099 726.23Z" fill="#347595"/>
<path opacity="0.2" d="M425.6 570.797C425.6 570.797 415.184 648.838 406.627 706.048C399.034 657.955 394.218 607.488 391.709 577.046L425.6 570.797Z" fill="black"/>
<path d="M338.822 723.946C351.926 643.104 351.501 589.098 364.605 549.226L439.533 548.195C439.533 548.195 403.2 676.48 386.758 729.882C370.317 783.283 340.211 899.427 340.211 899.427H315.84C315.84 899.427 316.915 786.486 338.822 723.946Z" fill="#347595"/>
<path d="M466.054 406.605L472.483 412.138L479.203 417.738C483.683 421.478 488.163 425.062 492.643 428.557C494.883 430.282 497.123 431.962 499.363 433.552C501.603 435.142 503.843 436.71 505.971 438.032C508.099 439.354 510.317 440.675 512.288 441.75C513.818 442.571 515.405 443.283 517.037 443.878L513.968 443.654C513.542 443.856 514.618 443.878 515.984 443.654C517.674 443.216 519.323 442.631 520.912 441.907C524.877 440.109 528.722 438.059 532.426 435.77C536.413 433.53 540.4 430.842 544.41 428.176L556.461 420.112L556.752 419.933C558.462 418.839 560.493 418.357 562.512 418.568C564.531 418.779 566.418 419.669 567.865 421.093C569.313 422.516 570.233 424.389 570.477 426.404C570.721 428.42 570.273 430.458 569.206 432.186C566.289 436.623 563.126 440.893 559.731 444.976C556.317 449.104 552.683 453.045 548.845 456.781C544.776 460.759 540.377 464.386 535.696 467.622C533.005 469.481 530.157 471.1 527.184 472.461C523.251 474.324 519.004 475.433 514.662 475.731C513.992 475.799 513.317 475.799 512.646 475.731L511.594 475.574C507.286 474.913 503.069 473.755 499.027 472.125C495.639 470.791 492.333 469.258 489.126 467.533C483.205 464.385 477.482 460.877 471.99 457.027C466.614 453.331 461.53 449.411 456.579 445.402C454.115 443.363 451.651 441.347 449.277 439.219C446.902 437.091 444.618 435.03 442.109 432.611C438.775 429.415 436.82 425.044 436.662 420.428C436.504 415.812 438.154 411.317 441.261 407.9C444.369 404.483 448.688 402.414 453.298 402.135C457.908 401.855 462.445 403.387 465.942 406.403L466.054 406.605Z" fill="#CF7A64"/>
<path d="M559.53 436.24L579.376 436.083L572.522 413.28C572.522 413.28 554.602 415.52 554.266 425.354L559.53 436.24Z" fill="#CE7A63"/>
<path d="M593.958 421.478L590.195 413.907C589.474 412.443 588.256 411.283 586.758 410.635C585.26 409.986 583.58 409.892 582.019 410.368L572.522 413.28L579.376 436.083L590.71 430.774C591.54 430.384 592.283 429.832 592.897 429.151C593.511 428.47 593.983 427.673 594.285 426.808C594.587 425.943 594.714 425.025 594.658 424.11C594.602 423.195 594.364 422.301 593.958 421.478Z" fill="#CE7A63"/>
<path d="M447.866 394.419C440.688 399.816 435.736 407.654 433.945 416.453C432.154 425.253 433.648 434.403 438.144 442.176C439.376 444.409 440.923 446.453 442.736 448.246C450.598 455.706 470.086 462.291 482.877 467.846C499.162 462.045 507.517 444.797 505.03 435.232C492.643 418.813 470.019 394.755 458.282 391.574C454.72 390.589 451.293 392 447.866 394.419Z" fill="#347595"/>
<path d="M376.141 387.946C399.069 385.417 422.197 385.267 445.155 387.498C454.602 388.496 463.344 392.963 469.687 400.035C476.03 407.106 479.525 416.28 479.494 425.779C479.382 461.082 473.715 500.08 467.846 554.31C451.136 571.581 361.491 553.616 361.491 553.616C362.432 533.936 364.859 514.355 368.749 495.04C365.702 472.64 357.952 447.104 353.584 417.424C353.09 414.002 353.285 410.516 354.157 407.17C355.029 403.824 356.561 400.686 358.662 397.94C360.763 395.194 363.391 392.896 366.393 391.179C369.394 389.463 372.709 388.364 376.141 387.946Z" fill="#FF8E05"/>
<mask id="mask0_223_200" style="mask-type:luminance" maskUnits="userSpaceOnUse" x="353" y="385" width="127" height="177">
<path d="M376.141 387.946C399.069 385.417 422.197 385.267 445.155 387.498C454.602 388.496 463.344 392.963 469.687 400.035C476.03 407.106 479.525 416.28 479.494 425.779C479.382 461.082 473.715 500.08 467.846 554.31C451.136 571.581 361.491 553.616 361.491 553.616C362.432 533.936 364.859 514.355 368.749 495.04C365.702 472.64 357.952 447.104 353.584 417.424C353.09 414.002 353.285 410.516 354.157 407.17C355.029 403.824 356.561 400.686 358.662 397.94C360.763 395.194 363.391 392.896 366.393 391.179C369.394 389.463 372.709 388.364 376.141 387.946Z" fill="white"/>
</mask>
<g mask="url(#mask0_223_200)">
<g opacity="0.2">
<path d="M372.333 425.6C372.182 425.6 372.037 425.542 371.929 425.437C371.82 425.333 371.756 425.191 371.75 425.04C371.744 424.962 371.754 424.883 371.779 424.809C371.804 424.734 371.844 424.666 371.897 424.607C371.949 424.548 372.013 424.501 372.084 424.468C372.155 424.434 372.232 424.416 372.31 424.413C376.768 424.157 381.021 422.459 384.429 419.574C383.776 419.277 383.201 418.832 382.749 418.275C382.188 417.522 381.791 416.66 381.584 415.744C380.262 410.928 381.45 404.544 386.221 401.99C387.011 401.449 387.96 401.191 388.915 401.256C389.87 401.321 390.776 401.706 391.485 402.349C391.941 402.96 392.234 403.677 392.336 404.432C392.762 407.504 392.23 410.633 390.813 413.392C389.791 415.478 388.428 417.378 386.781 419.014H387.184C388.944 419.102 390.701 418.794 392.325 418.111C393.95 417.429 395.4 416.39 396.57 415.072C398.924 412.358 400.311 408.938 400.512 405.35C400.515 405.273 400.533 405.197 400.567 405.127C400.6 405.056 400.648 404.994 400.707 404.944C400.766 404.893 400.835 404.855 400.909 404.833C400.984 404.81 401.062 404.804 401.139 404.813C401.296 404.824 401.442 404.896 401.546 405.013C401.65 405.13 401.705 405.283 401.699 405.44C401.471 409.294 399.975 412.964 397.443 415.878C396.158 417.335 394.559 418.481 392.766 419.23C390.973 419.979 389.034 420.311 387.094 420.202C386.635 420.156 386.178 420.081 385.728 419.978C382.006 423.3 377.269 425.266 372.288 425.555L372.333 425.6ZM388.931 402.438C388.183 402.465 387.453 402.673 386.803 403.043C382.592 405.283 381.562 411.174 382.726 415.453C382.894 416.198 383.214 416.899 383.667 417.514C384.13 418.072 384.745 418.484 385.437 418.701C387.21 417.035 388.667 415.062 389.738 412.877C391.047 410.34 391.548 407.463 391.171 404.634C391.109 404.085 390.908 403.561 390.589 403.11C390.389 402.863 390.137 402.664 389.85 402.529C389.563 402.393 389.249 402.324 388.931 402.326V402.438Z" fill="white"/>
<path d="M422.509 447.754H422.307C418.676 446.46 415.573 444.003 413.482 440.765C412.434 439.117 411.774 437.252 411.553 435.312C411.332 433.372 411.555 431.406 412.205 429.565C412.379 429.134 412.581 428.715 412.81 428.311C410.66 423.838 410.083 418.771 411.174 413.93C411.228 413.796 411.328 413.685 411.456 413.618C411.584 413.551 411.731 413.532 411.872 413.565C412.013 413.597 412.137 413.679 412.223 413.795C412.309 413.911 412.35 414.055 412.339 414.199C411.348 418.559 411.788 423.122 413.594 427.213C414.062 426.66 414.653 426.223 415.318 425.936C416.19 425.606 417.122 425.468 418.051 425.533C423.069 425.533 428.758 428.49 429.968 433.821C430.268 434.727 430.254 435.709 429.929 436.606C429.604 437.504 428.987 438.267 428.176 438.771C427.462 439.043 426.691 439.128 425.936 439.018C422.87 438.562 420.017 437.178 417.76 435.053C416.037 433.492 414.591 431.652 413.482 429.61C413.482 429.744 413.37 429.879 413.325 429.991C412.754 431.655 412.562 433.426 412.764 435.174C412.965 436.922 413.555 438.602 414.49 440.093C416.428 443.115 419.322 445.402 422.71 446.589C422.785 446.614 422.854 446.654 422.912 446.706C422.971 446.758 423.019 446.822 423.052 446.893C423.086 446.964 423.105 447.042 423.107 447.12C423.11 447.199 423.097 447.277 423.069 447.351C423.031 447.469 422.956 447.571 422.855 447.644C422.754 447.717 422.633 447.755 422.509 447.754ZM414.154 428.423C415.284 430.598 416.803 432.549 418.634 434.179C420.699 436.158 423.33 437.442 426.16 437.853C426.7 437.952 427.257 437.906 427.773 437.719C428.938 437.203 429.229 435.479 428.893 434.112C427.84 429.431 422.554 426.81 418.118 426.72C417.357 426.678 416.594 426.792 415.878 427.056C415.18 427.33 414.58 427.805 414.154 428.423Z" fill="white"/>
<path d="M468.362 433.126C467.9 433.147 467.44 433.065 467.014 432.887C466.588 432.709 466.207 432.439 465.898 432.096C465.416 431.504 465.106 430.791 465.002 430.035C464.487 426.986 464.941 423.853 466.301 421.075C467.27 418.965 468.579 417.027 470.176 415.341H469.773C468.015 415.304 466.27 415.658 464.666 416.379C463.062 417.1 461.639 418.168 460.499 419.507C458.21 422.284 456.91 425.744 456.803 429.341C456.792 429.497 456.72 429.643 456.603 429.748C456.486 429.852 456.333 429.907 456.176 429.901C456.019 429.889 455.874 429.818 455.769 429.7C455.665 429.583 455.61 429.43 455.616 429.274C455.739 425.419 457.142 421.715 459.603 418.746C460.859 417.273 462.433 416.105 464.206 415.329C465.98 414.553 467.906 414.189 469.84 414.266C470.307 414.285 470.772 414.345 471.229 414.445C474.839 411.039 479.499 408.962 484.445 408.554C484.522 408.544 484.6 408.551 484.675 408.574C484.749 408.596 484.818 408.634 484.877 408.684C484.936 408.735 484.984 408.797 485.017 408.867C485.051 408.937 485.069 409.014 485.072 409.091C485.079 409.244 485.027 409.394 484.927 409.511C484.827 409.627 484.687 409.702 484.534 409.718C480.077 410.104 475.86 411.91 472.506 414.87C473.181 415.141 473.781 415.571 474.253 416.125C474.824 416.861 475.236 417.708 475.462 418.611C476.896 423.405 475.866 429.699 471.162 432.477C470.297 432.922 469.334 433.145 468.362 433.126ZM471.542 415.61C469.808 417.314 468.397 419.317 467.376 421.523C466.13 424.096 465.7 426.988 466.144 429.811C466.238 430.352 466.452 430.865 466.771 431.312C467.317 431.721 467.982 431.942 468.664 431.942C469.346 431.942 470.01 431.721 470.557 431.312C474.701 428.893 475.597 423.069 474.342 418.813C474.154 418.067 473.819 417.367 473.357 416.752C472.871 416.208 472.243 415.812 471.542 415.61Z" fill="white"/>
<path d="M445.334 421.344H445.222C445.069 421.312 444.935 421.221 444.847 421.092C444.759 420.962 444.725 420.804 444.752 420.65C445.629 416.27 445.079 411.725 443.184 407.68C442.717 408.231 442.136 408.674 441.482 408.979C440.616 409.337 439.684 409.505 438.749 409.472C433.754 409.472 428.042 406.717 426.72 401.453C426.394 400.553 426.383 399.569 426.688 398.662C426.993 397.755 427.596 396.978 428.4 396.458C429.109 396.171 429.881 396.071 430.64 396.166C433.722 396.538 436.611 397.861 438.906 399.952C440.682 401.461 442.196 403.255 443.386 405.261L443.52 404.88C444.056 403.202 444.208 401.424 443.964 399.679C443.719 397.934 443.085 396.267 442.109 394.8C440.084 391.834 437.128 389.627 433.709 388.528C433.562 388.473 433.442 388.362 433.375 388.22C433.308 388.078 433.299 387.915 433.35 387.766C433.375 387.692 433.415 387.623 433.467 387.564C433.52 387.506 433.583 387.458 433.655 387.425C433.726 387.391 433.803 387.372 433.882 387.37C433.96 387.367 434.039 387.38 434.112 387.408C437.763 388.589 440.916 390.954 443.072 394.128C444.172 395.751 444.884 397.605 445.152 399.548C445.42 401.49 445.237 403.468 444.618 405.328C444.464 405.76 444.277 406.18 444.058 406.582C446.316 411.009 447.011 416.069 446.029 420.941C445.978 421.079 445.881 421.195 445.755 421.268C445.628 421.342 445.479 421.369 445.334 421.344ZM429.946 397.309C429.562 397.297 429.181 397.366 428.826 397.51C427.683 398.048 427.437 399.75 427.795 401.139C428.96 405.776 434.269 408.262 438.682 408.262C439.447 408.3 440.211 408.17 440.922 407.882C441.583 407.575 442.143 407.086 442.534 406.47C441.392 404.335 439.875 402.423 438.054 400.826C435.947 398.901 433.293 397.68 430.461 397.331L429.946 397.309Z" fill="white"/>
<path d="M382.032 486.08C381.894 486.053 381.77 485.979 381.681 485.871C381.592 485.763 381.543 485.627 381.543 485.487C381.543 485.346 381.592 485.21 381.681 485.102C381.77 484.994 381.894 484.92 382.032 484.893C386.495 484.632 390.754 482.935 394.173 480.055C393.514 479.757 392.932 479.312 392.47 478.755C391.912 478.009 391.516 477.155 391.306 476.247C389.984 471.408 391.171 465.047 395.965 462.493C396.746 461.943 397.691 461.676 398.645 461.737C399.598 461.798 400.502 462.184 401.206 462.829C401.663 463.44 401.956 464.157 402.058 464.912C402.484 467.984 401.952 471.113 400.534 473.872C399.501 475.916 398.131 477.772 396.48 479.36H396.883C398.643 479.448 400.4 479.14 402.025 478.457C403.649 477.775 405.1 476.736 406.269 475.418C408.628 472.706 410.015 469.285 410.211 465.696C410.214 465.618 410.232 465.542 410.266 465.472C410.3 465.402 410.347 465.34 410.406 465.289C410.465 465.239 410.534 465.201 410.609 465.178C410.683 465.156 410.761 465.149 410.838 465.159C410.995 465.17 411.141 465.242 411.245 465.359C411.35 465.476 411.405 465.629 411.398 465.786C411.175 469.641 409.678 473.312 407.142 476.224C405.857 477.681 404.258 478.827 402.465 479.576C400.673 480.325 398.733 480.657 396.794 480.547C396.334 480.5 395.878 480.425 395.427 480.323C391.706 483.647 386.969 485.613 381.987 485.901L382.032 486.08ZM398.72 462.896C397.936 462.897 397.165 463.097 396.48 463.479C392.269 465.719 391.238 471.61 392.403 475.888C392.571 476.633 392.891 477.335 393.344 477.949C393.807 478.507 394.422 478.919 395.114 479.136C396.89 477.473 398.348 475.499 399.414 473.312C400.724 470.776 401.224 467.899 400.848 465.069C400.786 464.52 400.585 463.996 400.266 463.546C400.066 463.337 399.826 463.172 399.56 463.06C399.294 462.949 399.008 462.893 398.72 462.896Z" fill="white"/>
<path d="M433.552 510.72H433.328C429.7 509.421 426.599 506.965 424.502 503.731C423.452 502.084 422.793 500.218 422.575 498.277C422.358 496.335 422.588 494.37 423.248 492.531C423.414 492.101 423.608 491.681 423.83 491.277C421.686 486.802 421.118 481.734 422.218 476.896C422.236 476.821 422.269 476.75 422.315 476.687C422.361 476.625 422.42 476.572 422.486 476.532C422.553 476.493 422.627 476.467 422.704 476.456C422.781 476.446 422.859 476.45 422.934 476.471C423.009 476.486 423.08 476.517 423.142 476.561C423.204 476.605 423.257 476.661 423.297 476.726C423.337 476.791 423.363 476.863 423.374 476.939C423.385 477.014 423.38 477.091 423.36 477.165C422.378 481.528 422.825 486.091 424.637 490.179C425.107 489.628 425.697 489.191 426.362 488.903C427.235 488.58 428.165 488.443 429.094 488.499C434.09 488.499 439.802 491.456 441.011 496.787C441.313 497.696 441.298 498.68 440.969 499.579C440.639 500.479 440.015 501.239 439.197 501.738C438.487 502.023 437.712 502.108 436.957 501.984C433.886 501.543 431.028 500.158 428.781 498.019C427.065 496.453 425.619 494.614 424.502 492.576C424.502 492.711 424.502 492.845 424.346 492.957C423.775 494.621 423.583 496.392 423.784 498.14C423.986 499.888 424.576 501.569 425.51 503.059C427.457 506.083 430.358 508.37 433.754 509.555C433.828 509.58 433.897 509.62 433.955 509.672C434.013 509.725 434.059 509.79 434.091 509.861C434.123 509.933 434.139 510.011 434.139 510.089C434.139 510.168 434.122 510.245 434.09 510.317C434.056 510.433 433.985 510.535 433.888 510.608C433.791 510.681 433.673 510.72 433.552 510.72ZM425.197 491.389C426.312 493.574 427.832 495.528 429.677 497.146C431.739 499.12 434.359 500.41 437.181 500.842C437.731 500.923 438.292 500.869 438.816 500.685C439.981 500.17 440.25 498.445 439.936 497.079C438.883 492.397 433.597 489.776 429.162 489.687C428.4 489.637 427.636 489.752 426.922 490.023C426.225 490.299 425.626 490.775 425.197 491.389Z" fill="white"/>
<path d="M391.037 521.674C390.92 521.669 390.807 521.631 390.712 521.563C390.616 521.495 390.542 521.402 390.499 521.293C389.05 517.735 388.814 513.799 389.827 510.093C390.365 508.223 391.319 506.5 392.619 505.053C393.919 503.605 395.53 502.472 397.331 501.738C397.761 501.575 398.203 501.448 398.653 501.357C400.569 496.777 403.969 492.974 408.307 490.56C408.377 490.506 408.457 490.468 408.543 490.449C408.629 490.43 408.718 490.429 408.804 490.448C408.89 490.466 408.971 490.503 409.041 490.556C409.112 490.609 409.169 490.677 409.211 490.755C409.252 490.833 409.276 490.918 409.281 491.006C409.285 491.094 409.271 491.182 409.238 491.264C409.206 491.345 409.155 491.419 409.091 491.479C409.027 491.54 408.951 491.585 408.867 491.613C404.93 493.765 401.788 497.126 399.907 501.2C400.626 501.196 401.337 501.349 401.99 501.648C402.859 502.065 403.624 502.67 404.23 503.418C407.501 507.226 409.136 513.386 405.955 517.843C405.45 518.666 404.682 519.294 403.776 519.627C402.87 519.96 401.878 519.979 400.96 519.68C400.287 519.322 399.716 518.797 399.302 518.157C397.594 515.572 396.732 512.518 396.838 509.421C396.86 507.131 397.262 504.86 398.026 502.701L397.645 502.835C396.03 503.521 394.589 504.558 393.426 505.872C392.264 507.186 391.409 508.743 390.925 510.429C389.976 513.89 390.196 517.567 391.552 520.89C391.581 520.962 391.595 521.039 391.594 521.116C391.592 521.194 391.575 521.27 391.544 521.341C391.513 521.412 391.468 521.476 391.411 521.529C391.355 521.583 391.289 521.624 391.216 521.651L391.037 521.674ZM399.482 502.365C398.596 504.636 398.133 507.05 398.115 509.488C398.008 512.336 398.791 515.147 400.355 517.53C400.647 518 401.056 518.386 401.542 518.65C402.707 519.187 404.141 518.269 404.992 517.104C407.77 513.184 406.224 507.517 403.334 504.135C402.858 503.534 402.263 503.039 401.587 502.679C400.926 502.386 400.199 502.278 399.482 502.365Z" fill="white"/>
<path d="M388.259 561.03C384.412 560.844 380.738 559.378 377.821 556.864C376.337 555.597 375.162 554.009 374.386 552.219C373.61 550.43 373.252 548.486 373.341 546.538C373.378 546.078 373.446 545.622 373.542 545.171C370.201 541.454 368.213 536.719 367.898 531.731C367.891 531.654 367.901 531.576 367.927 531.503C367.952 531.43 367.992 531.363 368.045 531.306C368.097 531.249 368.161 531.204 368.232 531.173C368.303 531.142 368.38 531.126 368.458 531.126C368.614 531.12 368.767 531.175 368.884 531.28C369.001 531.384 369.073 531.53 369.085 531.686C369.391 536.138 371.11 540.375 373.99 543.782C374.288 543.123 374.732 542.541 375.29 542.08C376.037 541.518 376.89 541.115 377.798 540.893C382.614 539.571 388.886 540.714 391.574 545.373C392.125 546.156 392.394 547.104 392.337 548.06C392.28 549.016 391.901 549.924 391.261 550.637C390.647 551.092 389.932 551.392 389.178 551.51C386.108 551.942 382.979 551.418 380.218 550.01C378.131 549.007 376.224 547.667 374.573 546.045C374.562 546.179 374.562 546.314 374.573 546.448C374.473 548.233 374.78 550.018 375.471 551.667C376.161 553.316 377.218 554.787 378.56 555.968C381.289 558.307 384.715 559.677 388.304 559.866C388.382 559.868 388.458 559.887 388.528 559.92C388.598 559.954 388.66 560.002 388.711 560.061C388.761 560.12 388.799 560.189 388.822 560.263C388.844 560.337 388.851 560.416 388.842 560.493C388.839 560.566 388.821 560.639 388.79 560.706C388.76 560.772 388.716 560.832 388.662 560.882C388.608 560.932 388.544 560.971 388.475 560.997C388.406 561.022 388.333 561.033 388.259 561.03ZM374.819 544.858C376.5 546.627 378.489 548.077 380.688 549.136C383.229 550.432 386.106 550.917 388.931 550.525C389.481 550.45 390.003 550.243 390.454 549.92C391.418 549.091 391.194 547.389 390.454 546.134C388.102 541.946 382.301 540.938 378.022 542.125C377.274 542.301 376.566 542.621 375.939 543.066C375.455 543.57 375.101 544.185 374.909 544.858H374.819Z" fill="white"/>
<path d="M369.734 509.555C365.888 509.351 362.217 507.878 359.296 505.367C357.811 504.101 356.635 502.512 355.859 500.723C355.082 498.933 354.726 496.989 354.816 495.04C354.857 494.581 354.924 494.125 355.018 493.674C351.7 489.986 349.712 485.294 349.373 480.346C349.367 480.189 349.421 480.036 349.526 479.919C349.63 479.802 349.776 479.73 349.933 479.719C350.088 479.718 350.238 479.774 350.354 479.878C350.47 479.981 350.543 480.124 350.56 480.279C350.862 484.738 352.581 488.984 355.466 492.397C355.768 491.735 356.212 491.146 356.765 490.672C357.511 490.114 358.366 489.717 359.274 489.507C364.09 488.163 370.474 489.306 373.05 493.987C373.6 494.771 373.869 495.718 373.812 496.674C373.756 497.63 373.376 498.539 372.736 499.251C372.125 499.708 371.408 500.001 370.653 500.102C367.585 500.553 364.453 500.036 361.693 498.624C359.601 497.622 357.692 496.274 356.048 494.637C356.039 494.771 356.039 494.906 356.048 495.04C355.972 496.799 356.291 498.553 356.981 500.173C357.671 501.794 358.714 503.239 360.035 504.403C362.761 506.744 366.19 508.108 369.779 508.279C369.936 508.29 370.082 508.362 370.186 508.479C370.29 508.596 370.345 508.749 370.339 508.906C370.345 508.989 370.334 509.072 370.307 509.151C370.279 509.23 370.235 509.302 370.179 509.363C370.122 509.424 370.053 509.472 369.977 509.505C369.9 509.539 369.818 509.556 369.734 509.555ZM356.294 493.36C357.968 495.138 359.959 496.589 362.163 497.639C364.701 498.944 367.581 499.429 370.406 499.027C370.958 498.963 371.484 498.755 371.93 498.422C372.893 497.616 372.669 495.914 371.93 494.659C369.69 490.471 363.776 489.462 359.498 490.65C358.753 490.817 358.051 491.138 357.437 491.591C356.939 492.08 356.577 492.689 356.384 493.36H356.294Z" fill="white"/>
<path d="M478.061 488.029C477.602 488.047 477.144 487.967 476.719 487.793C476.294 487.619 475.911 487.356 475.597 487.021C475.115 486.429 474.805 485.716 474.701 484.96C474.203 481.911 474.656 478.782 476 476C476.969 473.896 478.279 471.966 479.875 470.288H479.472C477.714 470.251 475.97 470.606 474.366 471.326C472.762 472.047 471.338 473.115 470.198 474.454C467.91 477.223 466.609 480.675 466.502 484.266C466.5 484.344 466.481 484.421 466.448 484.492C466.414 484.563 466.367 484.627 466.308 484.679C466.25 484.732 466.181 484.772 466.107 484.797C466.032 484.822 465.954 484.832 465.875 484.826C465.723 484.814 465.58 484.746 465.476 484.633C465.372 484.521 465.315 484.374 465.315 484.221C465.433 480.365 466.836 476.659 469.302 473.693C470.552 472.205 472.122 471.019 473.895 470.224C475.667 469.428 477.597 469.045 479.539 469.101C480.006 469.14 480.47 469.207 480.928 469.302C484.542 465.899 489.198 463.816 494.144 463.389C494.222 463.383 494.301 463.393 494.375 463.418C494.45 463.443 494.518 463.483 494.577 463.535C494.636 463.587 494.683 463.651 494.716 463.722C494.75 463.793 494.768 463.87 494.771 463.949C494.778 464.102 494.726 464.252 494.626 464.369C494.526 464.485 494.386 464.559 494.234 464.576C489.784 464.949 485.573 466.748 482.227 469.706C482.889 470 483.477 470.436 483.952 470.982C484.532 471.713 484.945 472.562 485.162 473.469C486.595 478.262 485.565 484.557 480.861 487.312C480.005 487.79 479.041 488.037 478.061 488.029ZM481.264 470.512C479.533 472.222 478.128 474.234 477.12 476.448C475.887 479.016 475.458 481.897 475.888 484.714C475.975 485.267 476.198 485.791 476.538 486.237C477.366 487.178 479.069 486.931 480.301 486.237C484.445 483.795 485.341 477.971 484.086 473.738C483.898 472.992 483.563 472.292 483.101 471.677C482.602 471.133 481.969 470.731 481.264 470.512Z" fill="white"/>
<path d="M475.216 528.842C475.067 528.837 474.925 528.777 474.818 528.673C474.71 528.57 474.645 528.43 474.634 528.282C474.28 523.829 472.496 519.61 469.549 516.253C469.254 516.914 468.819 517.503 468.272 517.978C467.536 518.549 466.689 518.961 465.786 519.187C460.992 520.598 454.698 519.546 451.942 514.819C451.382 514.043 451.102 513.1 451.147 512.144C451.191 511.188 451.559 510.276 452.189 509.555C452.781 509.073 453.494 508.764 454.25 508.659C457.303 508.162 460.436 508.631 463.21 510.003C465.314 510.981 467.244 512.297 468.922 513.901C468.922 513.766 468.922 513.632 468.922 513.52C468.968 511.758 468.622 510.009 467.909 508.397C467.196 506.786 466.134 505.353 464.8 504.202C462.027 501.914 458.58 500.6 454.989 500.461C454.834 500.461 454.686 500.399 454.577 500.29C454.468 500.181 454.406 500.033 454.406 499.878C454.406 499.724 454.468 499.576 454.577 499.467C454.686 499.357 454.834 499.296 454.989 499.296C458.845 499.419 462.546 500.84 465.494 503.328C466.974 504.583 468.147 506.16 468.923 507.938C469.7 509.717 470.059 511.649 469.974 513.587C469.953 514.047 469.893 514.504 469.795 514.954C473.177 518.584 475.237 523.247 475.642 528.192C475.648 528.272 475.638 528.351 475.613 528.427C475.588 528.503 475.549 528.573 475.497 528.633C475.445 528.694 475.381 528.743 475.31 528.779C475.239 528.815 475.161 528.836 475.082 528.842H475.216ZM456.557 509.622C455.857 509.614 455.159 509.682 454.474 509.824C453.926 509.893 453.407 510.11 452.973 510.451C452.01 511.28 452.256 512.982 452.973 514.214C455.392 518.381 461.216 519.299 465.45 518.045C466.194 517.865 466.895 517.537 467.51 517.082C468.04 516.593 468.433 515.976 468.653 515.29C466.96 513.531 464.955 512.103 462.739 511.078C460.804 510.164 458.697 509.668 456.557 509.622Z" fill="white"/>
<path d="M457.878 561.12C457.465 561.134 457.054 561.064 456.669 560.914C456.283 560.763 455.933 560.536 455.638 560.247C455.117 559.687 454.754 558.999 454.586 558.253C453.906 555.263 454.156 552.137 455.302 549.293C456.118 547.119 457.291 545.098 458.774 543.312H458.371C456.613 543.386 454.895 543.855 453.343 544.685C451.792 545.515 450.448 546.684 449.411 548.106C447.317 551.022 446.253 554.553 446.387 558.141C446.394 558.22 446.383 558.3 446.356 558.374C446.33 558.449 446.287 558.517 446.232 558.575C446.177 558.632 446.111 558.677 446.037 558.706C445.963 558.736 445.884 558.749 445.805 558.746C445.65 558.746 445.502 558.684 445.393 558.575C445.284 558.466 445.222 558.318 445.222 558.163C445.075 554.31 446.218 550.519 448.47 547.389C449.615 545.82 451.1 544.53 452.815 543.619C454.531 542.707 456.43 542.196 458.371 542.125C458.834 542.094 459.298 542.094 459.76 542.125C463.148 538.513 467.654 536.146 472.55 535.405C472.627 535.395 472.705 535.399 472.779 535.419C472.854 535.439 472.924 535.473 472.985 535.52C473.046 535.567 473.098 535.625 473.137 535.692C473.176 535.759 473.201 535.832 473.211 535.909C473.221 535.985 473.217 536.063 473.197 536.138C473.177 536.212 473.143 536.282 473.096 536.344C473.049 536.405 472.991 536.457 472.924 536.495C472.857 536.534 472.784 536.559 472.707 536.57C468.297 537.253 464.222 539.334 461.082 542.506C461.761 542.753 462.38 543.142 462.896 543.648C463.515 544.354 463.987 545.177 464.285 546.067C466.032 550.749 465.45 557.088 460.925 560.179C460.02 560.778 458.963 561.105 457.878 561.12ZM460.118 543.402C458.501 545.227 457.227 547.329 456.355 549.607C455.278 552.248 455.043 555.159 455.683 557.939C455.8 558.487 456.054 558.996 456.422 559.418C456.996 559.784 457.674 559.954 458.353 559.902C459.032 559.849 459.675 559.577 460.186 559.127C464.15 556.416 464.666 550.547 463.098 546.403C462.872 545.666 462.49 544.986 461.978 544.41C461.469 543.924 460.844 543.576 460.163 543.402H460.118Z" fill="white"/>
<path d="M411.219 568.803C411.098 568.803 410.981 568.766 410.881 568.699C410.781 568.631 410.704 568.535 410.659 568.422C410.63 568.35 410.616 568.273 410.618 568.196C410.619 568.118 410.636 568.042 410.667 567.971C410.698 567.9 410.743 567.836 410.8 567.783C410.856 567.73 410.923 567.688 410.995 567.661C415.131 565.975 418.612 562.997 420.918 559.171C420.204 559.09 419.516 558.853 418.902 558.477C418.129 557.953 417.472 557.274 416.976 556.483C414.198 552.317 413.302 546 416.976 541.968C417.306 541.367 417.799 540.871 418.398 540.537C418.997 540.203 419.678 540.044 420.363 540.079C421.048 540.114 421.709 540.342 422.271 540.735C422.832 541.129 423.272 541.672 423.539 542.304C424.932 545.07 425.426 548.203 424.95 551.264C424.678 553.599 424.011 555.872 422.979 557.984H423.36C425.051 557.504 426.613 556.652 427.931 555.489C429.249 554.326 430.289 552.882 430.976 551.264C432.341 547.935 432.554 544.245 431.581 540.781C431.546 540.63 431.571 540.471 431.65 540.337C431.73 540.204 431.857 540.106 432.006 540.064C432.081 540.044 432.16 540.039 432.237 540.05C432.314 540.06 432.388 540.086 432.454 540.126C432.521 540.165 432.579 540.218 432.626 540.281C432.672 540.343 432.705 540.414 432.723 540.49C433.749 544.192 433.52 548.13 432.074 551.69C431.321 553.482 430.173 555.08 428.714 556.364C427.255 557.648 425.524 558.585 423.651 559.104C423.204 559.226 422.747 559.309 422.285 559.35C419.842 563.67 416.015 567.039 411.421 568.915L411.219 568.803ZM420.515 541.363C419.479 541.458 418.521 541.957 417.849 542.752C414.624 546.314 415.61 552.138 417.962 555.811C418.368 556.469 418.901 557.04 419.529 557.491C420.154 557.856 420.867 558.042 421.59 558.029C422.754 555.886 423.513 553.547 423.83 551.13C424.26 548.309 423.814 545.424 422.554 542.864C422.306 542.369 421.945 541.939 421.501 541.61C421.204 541.432 420.861 541.346 420.515 541.363Z" fill="white"/>
<path d="M455.034 476.247C454.956 476.231 454.883 476.199 454.818 476.154C454.753 476.109 454.697 476.051 454.656 475.984C454.614 475.917 454.586 475.842 454.574 475.764C454.562 475.686 454.566 475.606 454.586 475.53C455.454 471.148 454.896 466.603 452.995 462.56C452.536 463.125 451.954 463.577 451.293 463.882C450.426 464.233 449.494 464.393 448.56 464.352C443.565 464.352 437.853 461.619 436.531 456.355C436.205 455.455 436.194 454.472 436.499 453.564C436.804 452.657 437.408 451.88 438.211 451.36C438.921 451.073 439.692 450.973 440.451 451.069C443.533 451.448 446.425 452.761 448.739 454.832C450.517 456.349 452.031 458.151 453.219 460.163L453.354 459.782C453.89 458.104 454.042 456.327 453.797 454.582C453.553 452.837 452.919 451.169 451.942 449.702C449.837 446.729 446.791 444.551 443.296 443.52C443.222 443.497 443.153 443.46 443.094 443.41C443.035 443.36 442.986 443.299 442.95 443.23C442.915 443.162 442.894 443.086 442.888 443.009C442.881 442.932 442.891 442.854 442.915 442.781C442.971 442.633 443.08 442.512 443.221 442.441C443.363 442.371 443.525 442.356 443.677 442.4C447.318 443.601 450.465 445.961 452.637 449.12C453.732 450.745 454.439 452.601 454.703 454.543C454.967 456.485 454.781 458.461 454.16 460.32C454.007 460.76 453.82 461.187 453.6 461.597C455.857 466.016 456.552 471.069 455.571 475.933C455.523 476.032 455.446 476.115 455.35 476.171C455.254 476.227 455.144 476.253 455.034 476.247ZM439.645 452.211C439.26 452.208 438.879 452.284 438.525 452.435C437.382 452.973 437.136 454.675 437.494 456.064C438.682 460.701 443.968 463.187 448.381 463.187C449.145 463.199 449.904 463.07 450.621 462.807C451.278 462.493 451.836 462.005 452.234 461.395C451.091 459.254 449.574 457.334 447.754 455.728C445.644 453.811 442.99 452.597 440.16 452.256L439.645 452.211Z" fill="white"/>
<path d="M378.806 469.594H378.672C378.518 469.556 378.386 469.46 378.302 469.327C378.218 469.193 378.19 469.031 378.224 468.877C379.103 464.495 378.546 459.947 376.634 455.907C376.174 456.472 375.592 456.924 374.931 457.229C374.071 457.575 373.148 457.743 372.221 457.722C367.248 457.722 361.536 454.966 360.192 449.702C359.87 448.802 359.861 447.82 360.166 446.914C360.471 446.007 361.072 445.23 361.872 444.707C362.581 444.42 363.353 444.32 364.112 444.416C367.188 444.794 370.073 446.107 372.378 448.179C374.161 449.691 375.676 451.493 376.858 453.51C376.858 453.376 376.97 453.242 377.014 453.13C377.541 451.45 377.688 449.674 377.444 447.931C377.2 446.187 376.571 444.52 375.603 443.05C373.57 440.087 370.618 437.875 367.203 436.755C367.129 436.733 367.061 436.695 367.002 436.645C366.944 436.595 366.896 436.533 366.863 436.464C366.829 436.395 366.81 436.319 366.807 436.242C366.804 436.165 366.817 436.088 366.845 436.016C366.896 435.87 367.001 435.749 367.139 435.678C367.276 435.608 367.435 435.592 367.584 435.635C371.225 436.836 374.372 439.196 376.544 442.355C377.639 443.981 378.346 445.836 378.61 447.778C378.874 449.72 378.688 451.696 378.067 453.555C377.924 453.999 377.736 454.426 377.507 454.832C379.76 459.252 380.462 464.301 379.501 469.168C379.459 469.313 379.364 469.437 379.236 469.515C379.107 469.594 378.954 469.622 378.806 469.594ZM363.395 445.558C363.018 445.555 362.643 445.631 362.298 445.782C361.155 446.32 360.909 448.022 361.267 449.411C362.432 454.048 367.718 456.534 372.131 456.534C372.895 456.548 373.655 456.418 374.371 456.154C375.018 455.834 375.567 455.347 375.962 454.742C374.822 452.599 373.304 450.679 371.482 449.075C369.36 447.162 366.701 445.95 363.866 445.603L363.395 445.558Z" fill="white"/>
</g>
</g>
<path d="M396.928 345.206C397.679 359.31 395.228 373.4 389.76 386.422C396.995 393.142 408.755 401.52 424.413 401.296C440.07 401.072 437.472 393.053 433.373 387.587C422.173 381.942 421.434 373.632 424.189 368.592L396.928 345.206Z" fill="#CE7A63"/>
<path opacity="0.2" d="M424.099 368.614L411.69 360.864C405.978 361.76 403.222 369.04 410.323 374.528C415.162 378.269 422.8 379.747 423.763 378.739C423.02 377.144 422.663 375.396 422.721 373.637C422.779 371.878 423.252 370.157 424.099 368.614Z" fill="black"/>
<path d="M428.982 314.451C444.931 311.114 442.266 330.915 438.122 341.197C427.661 325.92 428.982 314.451 428.982 314.451Z" fill="#263238"/>
<path d="M388.125 335.507C391.216 353.069 392.179 362.163 403.469 368.144C431.626 383.018 438.01 372.781 440.25 354.704C442.243 338.352 436.867 312.368 418.746 307.44C414.746 306.373 410.543 306.331 406.523 307.317C402.503 308.303 398.796 310.286 395.745 313.083C392.693 315.88 390.396 319.401 389.064 323.32C387.732 327.239 387.409 331.43 388.125 335.507Z" fill="#CE7A63"/>
<path d="M393.389 349.978C408.688 353.114 392.314 337.008 395.853 330.467C399.392 323.926 418.634 328.787 413.123 318.102C428.064 321.888 441.907 323.254 444.931 313.174C449.411 298.525 435.12 295.725 426.698 299.958C419.642 303.52 419.709 304.685 409.158 301.146C398.608 297.606 372.4 299.667 379.098 311.696C367.181 312.189 367.181 327.376 377.037 331.699C386.893 336.022 381.853 347.603 393.389 349.978Z" fill="#EE921E"/>
<path d="M390.186 341.802C390.06 341.798 389.938 341.755 389.837 341.679C389.737 341.602 389.663 341.497 389.626 341.376C389.601 341.303 389.592 341.225 389.598 341.148C389.604 341.071 389.625 340.995 389.661 340.927C389.696 340.858 389.745 340.797 389.804 340.747C389.864 340.697 389.932 340.66 390.006 340.637L413.84 333.245C413.989 333.202 414.148 333.217 414.285 333.288C414.423 333.359 414.528 333.48 414.579 333.626C414.604 333.699 414.613 333.777 414.607 333.854C414.601 333.931 414.579 334.006 414.544 334.075C414.509 334.144 414.46 334.205 414.4 334.255C414.341 334.305 414.272 334.342 414.198 334.365L390.365 341.757L390.186 341.802Z" fill="white"/>
<path d="M381.808 312.525C376.051 307.888 368.368 306.746 368.368 309.478C368.368 312.211 379.12 311.718 380.15 313.555C381.181 315.392 381.808 312.525 381.808 312.525Z" fill="#263238"/>
<path d="M431.402 354.458C424.55 353.426 417.633 352.894 410.704 352.867C412.451 356.362 415.766 359.274 423.584 359.475C431.402 359.677 431.402 354.458 431.402 354.458Z" fill="white"/>
<path d="M382.816 349.082C384.6 352.796 387.72 355.7 391.552 357.213C396.435 358.982 398.765 354.166 397.331 348.902C396.01 344.176 391.91 337.546 387.05 338.083C382.189 338.621 380.509 344.333 382.816 349.082Z" fill="#CE7A63"/>
<path d="M417.939 335.798C418.163 337.299 419.149 338.374 420.179 338.218C421.21 338.061 421.77 336.717 421.546 335.216C421.322 333.715 420.336 332.64 419.306 332.797C418.275 332.954 417.715 334.298 417.939 335.798Z" fill="#263238"/>
<path d="M434.179 335.44C434.403 336.941 435.366 338.038 436.419 337.882C437.472 337.725 438.01 336.381 437.786 334.88C437.562 333.379 436.576 332.282 435.546 332.438C434.515 332.595 433.933 333.939 434.179 335.44Z" fill="#263238"/>
<path d="M411.846 331.99C411.694 331.972 411.549 331.918 411.421 331.834C411.226 331.702 411.092 331.499 411.045 331.268C410.999 331.038 411.046 330.798 411.174 330.602C411.946 329.403 412.993 328.405 414.228 327.692C415.463 326.979 416.851 326.571 418.275 326.502C418.513 326.502 418.741 326.597 418.909 326.765C419.077 326.933 419.171 327.161 419.171 327.398C419.171 327.636 419.077 327.864 418.909 328.032C418.741 328.2 418.513 328.294 418.275 328.294C417.152 328.367 416.062 328.703 415.093 329.275C414.124 329.847 413.304 330.639 412.698 331.587C412.611 331.731 412.484 331.846 412.333 331.917C412.181 331.989 412.012 332.014 411.846 331.99Z" fill="#263238"/>
<path d="M438.704 327.04C438.56 327.068 438.411 327.061 438.27 327.018C438.129 326.975 438.002 326.898 437.898 326.794C437.145 325.967 436.205 325.332 435.157 324.942C434.109 324.553 432.982 324.419 431.872 324.554C431.756 324.576 431.636 324.576 431.52 324.552C431.404 324.528 431.294 324.482 431.196 324.415C431.098 324.348 431.015 324.263 430.95 324.164C430.885 324.064 430.841 323.953 430.819 323.837C430.78 323.605 430.833 323.368 430.967 323.175C431.101 322.982 431.305 322.85 431.536 322.806C432.936 322.606 434.363 322.751 435.694 323.227C437.025 323.703 438.22 324.497 439.174 325.539C439.339 325.707 439.431 325.932 439.431 326.166C439.431 326.401 439.339 326.626 439.174 326.794C439.049 326.925 438.884 327.012 438.704 327.04Z" fill="#263238"/>
<path d="M435.994 346.102C435.433 346.087 434.881 345.953 434.376 345.71C433.87 345.467 433.422 345.12 433.059 344.691C430.927 341.658 430.045 337.92 430.595 334.253C431.155 327.667 434.336 322.515 437.875 322.515C438.437 322.526 438.99 322.658 439.496 322.902C440.002 323.145 440.45 323.495 440.81 323.926C442.941 326.952 443.823 330.683 443.274 334.342C442.714 340.928 439.533 346.102 435.994 346.102ZM437.875 323.702C435.053 323.702 432.253 328.586 431.782 334.365C431.301 337.714 432.101 341.122 434.022 343.907C434.28 344.213 434.598 344.462 434.957 344.639C435.315 344.817 435.706 344.918 436.106 344.938C438.928 344.938 441.728 340.054 442.198 334.275C442.692 330.932 441.891 327.527 439.958 324.755C439.711 324.435 439.396 324.173 439.036 323.987C438.676 323.801 438.28 323.697 437.875 323.68V323.702Z" fill="white"/>
<path d="M429.542 335.507C431.824 339.92 434.712 343.991 438.122 347.603C437.168 348.464 436.04 349.109 434.815 349.496C433.59 349.882 432.296 350.001 431.021 349.843L429.542 335.507Z" fill="#BA4D3C"/>
<path d="M376.32 427.235L370.451 433.35L364.47 439.667C360.528 443.878 356.675 448.157 352.957 452.39C351.12 454.518 349.328 456.669 347.626 458.819C345.923 460.97 344.221 463.053 342.698 465.158C341.174 467.264 339.83 469.347 338.666 471.251C337.756 472.737 336.955 474.287 336.269 475.888L336.672 472.842C336.47 472.416 336.448 473.67 336.672 475.082C337.033 476.924 337.558 478.731 338.24 480.48C339.844 484.752 341.699 488.926 343.795 492.979C345.923 497.302 348.275 501.626 350.694 506.016L357.997 519.142L358.131 519.389C359.085 521.192 359.396 523.266 359.011 525.269C358.627 527.272 357.57 529.084 356.016 530.405C354.463 531.727 352.505 532.478 350.466 532.536C348.427 532.594 346.429 531.954 344.803 530.723C340.549 527.317 336.488 523.675 332.64 519.814C328.787 515.984 325.091 511.974 321.44 507.674C317.753 503.193 314.413 498.438 311.45 493.45C309.786 490.576 308.341 487.581 307.126 484.49C305.495 480.404 304.629 476.053 304.573 471.654C304.557 470.986 304.61 470.318 304.73 469.661L304.954 468.608C305.864 464.346 307.247 460.199 309.075 456.243C310.605 452.936 312.326 449.72 314.227 446.611C317.681 440.864 321.496 435.343 325.651 430.08C329.616 424.906 333.805 420.045 338.083 415.318C340.323 412.966 342.384 410.614 344.646 408.352C346.909 406.09 349.126 403.872 351.635 401.632C355.023 398.576 359.458 396.945 364.018 397.077C368.579 397.21 372.912 399.096 376.116 402.344C379.32 405.591 381.148 409.95 381.22 414.511C381.291 419.073 379.6 423.486 376.499 426.832L376.32 427.235Z" fill="#CF7A64"/>
<path d="M346.506 514.058L366.352 514.349L359.363 537.107C359.363 537.107 341.443 534.666 341.174 524.922L346.506 514.058Z" fill="#CE7A63"/>
<path d="M380.8 529.021L376.992 536.57C376.266 538.034 375.042 539.19 373.538 539.831C372.035 540.472 370.352 540.554 368.794 540.064L359.318 537.107L366.307 514.349L377.507 519.725C378.343 520.109 379.093 520.656 379.713 521.335C380.333 522.014 380.811 522.811 381.118 523.677C381.425 524.544 381.555 525.463 381.5 526.381C381.446 527.299 381.208 528.197 380.8 529.021Z" fill="#CE7A63"/>
<path d="M372.154 388.752C362.32 391.126 350.605 395.024 340.077 406.672C329.884 418.721 321.008 431.825 313.6 445.76C324.8 465.158 342.899 467.398 347.76 466.122C364.806 454.653 375.155 448.806 379.949 433.619C384.742 418.432 379.501 400.512 372.154 388.752Z" fill="#347595"/>
<path d="M418.88 346.102C418.316 346.087 417.761 345.954 417.252 345.711C416.743 345.468 416.29 345.12 415.923 344.691C413.791 341.658 412.909 337.92 413.459 334.253C414.019 327.667 417.2 322.515 420.739 322.515C421.304 322.526 421.86 322.658 422.37 322.901C422.88 323.145 423.332 323.494 423.696 323.926C425.832 326.949 426.708 330.685 426.138 334.342C425.6 340.928 422.307 346.102 418.88 346.102ZM420.739 323.702C417.917 323.702 415.139 328.586 414.646 334.365C414.165 337.714 414.965 341.122 416.886 343.907C417.142 344.216 417.459 344.467 417.818 344.645C418.177 344.822 418.569 344.922 418.97 344.938C421.792 344.938 424.57 340.054 425.062 334.275C425.538 330.933 424.738 327.535 422.822 324.755C422.563 324.426 422.233 324.158 421.857 323.973C421.482 323.787 421.069 323.687 420.65 323.68L420.739 323.702Z" fill="white"/>
<path d="M431.178 334.902C431.063 334.902 430.95 334.868 430.855 334.805C430.759 334.741 430.684 334.65 430.64 334.544C430.594 334.424 430.522 334.315 430.429 334.226C430.336 334.137 430.224 334.07 430.102 334.029C428.562 333.84 427 334.121 425.622 334.835C425.552 334.869 425.476 334.888 425.398 334.891C425.32 334.895 425.242 334.883 425.169 334.856C425.096 334.828 425.029 334.787 424.972 334.733C424.915 334.68 424.87 334.615 424.838 334.544C424.777 334.401 424.772 334.24 424.827 334.094C424.881 333.947 424.989 333.828 425.13 333.76C426.766 332.925 428.626 332.635 430.438 332.931C430.973 333.143 431.406 333.552 431.648 334.074C431.702 334.217 431.699 334.375 431.641 334.516C431.583 334.657 431.473 334.771 431.334 334.835C431.286 334.866 431.233 334.889 431.178 334.902Z" fill="white"/>
<path d="M749.862 385.034C767.402 364.874 758.352 342.854 738.662 330.714C718.973 318.573 695.968 327.443 687.142 348.029C678.317 368.614 681.453 373.946 675.942 375.066C673.434 385.907 681.206 397.286 690.211 391.283C703.83 397.04 727.709 410.48 749.862 385.034Z" fill="#EE921E"/>
<path d="M725.76 401.363C716.128 401.363 707.616 397.174 701.389 394.106L698.611 392.739L699.507 390.858C700.381 391.261 701.322 391.731 702.307 392.224C714.179 398.07 732.099 406.896 751.229 387.005C758.285 379.658 761.555 371.325 760.726 363.171C759.83 354.435 754.231 345.923 745.36 339.83L746.547 338.106C755.933 344.557 761.847 353.606 762.81 362.97C763.706 371.93 760.234 380.666 752.752 388.438C743.389 398.205 734.16 401.363 725.76 401.363Z" fill="#EE921E"/>
<path d="M685.216 356.16C681.43 342.899 685.754 315.974 718.816 315.952C751.878 315.93 765.856 339.315 752.08 358.714C712.186 367.741 685.216 356.16 685.216 356.16Z" fill="#EE921E"/>
<path d="M671.552 382.816C650.966 388.237 668.797 422.554 689.024 406.896C684.544 406.582 674.688 396.682 682.304 390.275C674.24 383.242 671.552 382.816 671.552 382.816Z" fill="#EE921E"/>
<path d="M671.821 413.459C669.915 413.458 668.037 413.013 666.333 412.16C663.406 410.474 661.027 407.98 659.481 404.977C657.936 401.973 657.289 398.587 657.619 395.226C657.884 392.412 659.042 389.757 660.925 387.649C662.807 385.541 665.314 384.091 668.08 383.51L668.595 385.549C666.222 385.988 664.06 387.195 662.441 388.984C660.822 390.773 659.836 393.045 659.635 395.45C659.334 398.386 659.886 401.346 661.225 403.976C662.564 406.606 664.633 408.795 667.184 410.278C671.552 412.518 676.614 411.286 681.408 406.896L682.819 408.464C679.921 411.466 675.989 413.252 671.821 413.459Z" fill="#EE921E"/>
<path d="M687.68 392.582C682.394 391.485 674.24 377.776 677.6 374.506C675.559 374.585 673.596 375.305 671.987 376.564C670.379 377.822 669.208 379.555 668.64 381.517C667.274 385.75 669.984 393.68 679.437 396.054C684.029 397.264 687.68 392.582 687.68 392.582Z" fill="#2B3F4C"/>
<path d="M688.688 449.12C688.531 454.25 688.15 459.312 687.837 464.397L686.538 479.629C686.09 484.736 685.462 489.821 684.835 494.973C684.499 497.526 684.118 500.125 683.648 502.813C683.185 505.701 682.519 508.553 681.654 511.347C678.218 521.529 673.658 531.296 668.058 540.467C662.797 549.407 656.953 557.99 650.563 566.16C649.839 567.154 648.764 567.835 647.556 568.064C646.348 568.294 645.098 568.055 644.06 567.396C643.022 566.737 642.274 565.708 641.967 564.517C641.66 563.327 641.819 562.064 642.41 560.986V560.874C646.89 552.048 651.37 542.954 655.312 533.994C657.261 529.514 659.21 525.034 660.867 520.397C662.54 516.01 663.932 511.521 665.034 506.957C665.513 504.861 665.858 502.736 666.064 500.595C666.266 498.355 666.422 495.802 666.557 493.338L667.363 478.352L668.147 463.277C668.483 458.237 668.707 453.197 669.133 448.179C669.278 445.592 670.446 443.169 672.378 441.442C674.31 439.715 676.85 438.827 679.437 438.973C682.024 439.118 684.448 440.286 686.174 442.218C687.901 444.151 688.789 446.69 688.643 449.277L688.688 449.12Z" fill="#FFB573"/>
<path d="M687.187 540.333C687.187 540.333 687.187 657.619 694.31 721.146C695.05 780.774 708.669 915.533 708.669 915.533H723.699C726.253 848.669 744.867 786.262 732.48 727.373C761.421 611.587 748.003 540.49 748.003 540.49L687.187 540.333Z" fill="#FFB573"/>
<path d="M703.584 540.4C703.584 540.4 714.784 683.939 737.363 735.28C760.973 789.264 802.883 895.014 807.027 912.934L819.594 909.597C819.594 909.597 811.283 793.52 772.912 727.91C784.784 566.138 754.88 540.355 754.88 540.355L703.584 540.4Z" fill="#FFB573"/>
<path d="M682.394 419.933C669.782 430.595 665.728 447.955 665.885 459.715C673.434 472.102 697.021 475.933 697.021 475.933C697.021 475.933 700.762 451.741 698.97 440.339C697.178 428.938 689.674 413.773 682.394 419.933Z" fill="#347595"/>
<path d="M673.344 442.198C672.632 435.751 674.418 429.276 678.335 424.105C682.251 418.934 688.001 415.461 694.4 414.4C698.051 413.75 701.904 413.146 705.6 412.675C717.122 411.44 728.717 411.029 740.298 411.443C743.613 411.443 746.861 411.622 749.93 411.824C752.637 412.002 755.28 412.735 757.692 413.978C760.105 415.22 762.237 416.945 763.955 419.045C765.673 421.146 766.941 423.577 767.681 426.188C768.42 428.799 768.615 431.535 768.253 434.224C760.928 482.832 756.582 517.978 761.376 539.28C761.376 539.28 776.518 559.44 783.395 605.853C789.398 646.33 787.875 714.582 794.483 751.251C770.874 768.118 695.923 767.088 684.88 757.232C687.994 683.088 672.829 585.939 684.365 541.072C679.75 516.208 682.259 497.213 679.661 482.138C662.301 470.512 675.293 459.738 673.344 442.198Z" fill="#347595"/>
<path d="M717.002 548.195C703.718 548.195 691.398 546.918 685.978 544.522C683.738 543.536 682.685 542.371 682.819 541.027C682.825 540.943 682.847 540.86 682.886 540.785C682.924 540.709 682.977 540.642 683.042 540.588C683.107 540.533 683.182 540.493 683.263 540.468C683.344 540.443 683.429 540.436 683.514 540.445C683.68 540.467 683.832 540.551 683.939 540.679C684.047 540.808 684.103 540.972 684.096 541.139C684.096 542.102 685.552 542.954 686.493 543.379C699.552 549.136 753.133 548.486 761.734 538.899C761.856 538.778 762.021 538.709 762.194 538.709C762.366 538.709 762.531 538.778 762.653 538.899C762.715 538.956 762.765 539.025 762.799 539.102C762.834 539.179 762.851 539.263 762.851 539.347C762.851 539.432 762.834 539.515 762.799 539.592C762.765 539.669 762.715 539.739 762.653 539.795C757.478 545.507 736.221 548.195 717.002 548.195Z" fill="white"/>
<path d="M716.352 543.626C703.069 543.626 690.749 542.349 685.328 539.974C683.088 538.989 682.035 537.734 682.17 536.458C682.192 536.287 682.279 536.132 682.412 536.024C682.545 535.915 682.715 535.862 682.886 535.875C683.055 535.898 683.208 535.985 683.313 536.119C683.417 536.253 683.465 536.423 683.446 536.592C683.446 537.555 684.902 538.384 685.843 538.832C698.925 544.589 752.483 543.939 761.107 534.352C761.228 534.237 761.388 534.173 761.555 534.173C761.722 534.173 761.882 534.237 762.003 534.352C762.118 534.473 762.182 534.633 762.182 534.8C762.182 534.967 762.118 535.127 762.003 535.248C756.829 540.938 735.594 543.626 716.352 543.626Z" fill="white"/>
<path opacity="0.2" d="M728 694.4C730.038 664.586 728 619.942 709.766 594.922C714.56 626.64 728 694.4 728 694.4Z" fill="black"/>
<path d="M734.586 372.691C733.04 383.891 732.032 404.342 740.275 411.488C722.859 419.258 708.258 432.202 698.454 448.56C687.523 423.629 705.578 412.72 705.578 412.72C717.853 409.315 717.002 400.131 714.336 391.552L734.586 372.691Z" fill="#FFB573"/>
<path opacity="0.2" d="M726.32 380.397L714.336 391.597C714.983 393.584 715.462 395.622 715.77 397.69C720.474 396.838 726.723 391.418 726.97 386.49C727.132 384.436 726.912 382.37 726.32 380.397Z" fill="black"/>
<path d="M739.2 347.939C740.141 366.442 740.925 374.282 732.749 384.563C720.451 400.042 697.626 396.659 691.197 378.694C685.418 362.499 684.858 334.947 701.949 325.987C719.04 317.027 738.237 329.414 739.2 347.939Z" fill="#FFB573"/>
<path d="M721.818 333.312C720.429 352.822 741.53 369.6 748.138 362.186C754.746 354.771 738.461 320.006 721.818 333.312Z" fill="#EE921E"/>
<path d="M692.451 331.744C716.285 349.866 744.083 349.776 742.314 336.56C740.544 323.344 706.586 311.629 692.451 331.744Z" fill="#EE921E"/>
<path d="M710.64 355.354C710.819 356.854 710.147 358.154 709.162 358.243C708.176 358.333 707.213 357.19 707.056 355.69C706.899 354.189 707.549 352.912 708.557 352.822C709.565 352.733 710.483 353.92 710.64 355.354Z" fill="#2B3F4C"/>
<path d="M692.003 357.325C692.182 358.826 691.51 360.125 690.502 360.214C689.494 360.304 688.576 359.162 688.419 357.661C688.262 356.16 688.912 354.883 689.898 354.794C690.883 354.704 691.846 355.824 692.003 357.325Z" fill="#2B3F4C"/>
<path d="M690.346 354.816L686.582 354.122C686.582 354.122 688.778 356.765 690.346 354.816Z" fill="#2B3F4C"/>
<path d="M697.894 358.042C696.926 361.582 695.463 364.967 693.549 368.099C694.381 368.575 695.305 368.867 696.259 368.956C697.214 369.044 698.176 368.928 699.082 368.614L697.894 358.042Z" fill="#ED893E"/>
<path d="M745.203 364.717C744.61 366.291 743.682 367.717 742.483 368.897C741.284 370.077 739.843 370.981 738.259 371.549C734.16 372.87 731.808 368.458 732.704 363.843C733.488 359.677 736.557 353.965 740.791 354.682C745.024 355.398 746.861 360.64 745.203 364.717Z" fill="#FFB573"/>
<path d="M715.456 347.872C715.21 347.834 714.986 347.706 714.829 347.514C714.16 346.606 713.29 345.864 712.288 345.348C711.285 344.831 710.177 344.553 709.05 344.534C708.813 344.553 708.578 344.48 708.394 344.33C708.211 344.179 708.092 343.964 708.064 343.728C708.055 343.611 708.069 343.494 708.106 343.383C708.143 343.272 708.202 343.17 708.279 343.082C708.357 342.995 708.451 342.923 708.556 342.873C708.661 342.822 708.776 342.793 708.893 342.787C710.322 342.769 711.734 343.093 713.012 343.732C714.29 344.371 715.397 345.307 716.24 346.461C716.314 346.55 716.369 346.654 716.402 346.766C716.434 346.878 716.443 346.995 716.428 347.111C716.414 347.226 716.375 347.337 716.316 347.438C716.257 347.538 716.177 347.625 716.083 347.693C715.904 347.829 715.68 347.893 715.456 347.872Z" fill="#2B3F4C"/>
<path d="M686.448 350.896C686.231 350.975 685.993 350.975 685.776 350.896C685.56 350.802 685.389 350.629 685.297 350.412C685.205 350.195 685.2 349.952 685.283 349.731C685.804 348.428 686.629 347.269 687.688 346.349C688.748 345.43 690.013 344.777 691.376 344.445C691.613 344.406 691.857 344.461 692.053 344.599C692.25 344.738 692.385 344.948 692.429 345.184C692.468 345.41 692.417 345.642 692.288 345.83C692.158 346.019 691.959 346.149 691.734 346.192C690.656 346.465 689.659 346.992 688.825 347.728C687.991 348.465 687.345 349.389 686.941 350.426C686.897 350.535 686.83 350.633 686.745 350.714C686.66 350.795 686.559 350.857 686.448 350.896Z" fill="#2B3F4C"/>
<path d="M709.005 352.867L705.242 352.15C705.242 352.15 707.414 354.794 709.005 352.867Z" fill="#2B3F4C"/>
<path d="M736.96 511.168L722.154 503.619L718.726 522.323C718.726 522.323 730.688 525.19 739.11 521.674L740.432 519.434C740.768 515.357 740.275 513.654 736.96 511.168Z" fill="#FFB573"/>
<path d="M710.371 508.659L710.013 516.88C709.959 518.067 710.357 519.23 711.125 520.136C711.894 521.042 712.977 521.623 714.157 521.763L718.771 522.323L722.198 503.619L714.739 504.134C713.583 504.221 712.499 504.731 711.693 505.565C710.888 506.399 710.417 507.501 710.371 508.659Z" fill="#FFB573"/>
<path d="M768.32 428.938C771.949 439.174 775.219 449.366 778.154 459.805C781.324 470.372 783.853 481.121 785.725 491.994C786.215 495.047 786.5 498.131 786.576 501.222C786.723 505.441 785.725 509.622 783.686 513.318C781.473 517.072 778.179 520.07 774.234 521.92C771.023 523.405 767.585 524.337 764.064 524.675C758.069 525.188 752.032 524.818 746.144 523.578C743.352 523.075 740.593 522.409 737.878 521.584C735.143 520.821 732.451 519.909 729.814 518.851C728.715 518.415 727.813 517.592 727.277 516.538C726.74 515.484 726.607 514.271 726.901 513.126C727.195 511.98 727.896 510.981 728.874 510.316C729.851 509.65 731.038 509.364 732.211 509.51H732.48C734.877 509.802 737.498 510.115 740.006 510.317C742.515 510.518 745.091 510.608 747.578 510.675C752.278 510.859 756.982 510.445 761.578 509.443C763.349 509.051 765.045 508.37 766.595 507.427C767.484 506.935 768.168 506.14 768.522 505.187C768.863 504.094 768.955 502.938 768.79 501.805C768.581 499.545 768.229 497.301 767.738 495.085C766.752 490.291 765.498 485.274 763.997 480.301C762.496 475.328 761.107 470.288 759.517 465.27C756.358 455.28 753.088 445.11 749.84 435.232C749.002 432.778 749.174 430.093 750.316 427.765C751.459 425.438 753.479 423.66 755.933 422.822C758.386 421.985 761.072 422.156 763.4 423.299C765.727 424.441 767.505 426.462 768.343 428.915L768.32 428.938Z" fill="#FFB573"/>
<path d="M643.933 557.514L627.379 556.192L631.344 574.784C631.344 574.784 642.186 573.059 648.816 567.437C649.559 566.786 650.037 565.885 650.16 564.906C650.273 564.213 650.204 563.502 649.958 562.845C649.603 561.455 648.838 560.205 647.764 559.254C646.69 558.304 645.355 557.697 643.933 557.514Z" fill="#FFB573"/>
<path d="M618.352 565.354L621.174 573.082C621.573 574.202 622.383 575.128 623.439 575.673C624.496 576.218 625.72 576.341 626.864 576.016L631.344 574.784L627.379 556.192L620.659 559.507C619.628 560.033 618.825 560.918 618.4 561.994C617.975 563.071 617.958 564.265 618.352 565.354Z" fill="#FFB573"/>
<path d="M757.12 413.75C768.186 418.41 773.45 425.936 782.589 446.858C780.349 461.194 756.134 473.379 756.134 473.379C756.134 473.379 748.138 455.235 745.494 443.99C742.851 432.746 745.92 409.024 757.12 413.75Z" fill="#347595"/>
<path d="M704.995 438.861C710.147 436.934 724.64 435.792 731.181 441.885C741.888 436.374 747.734 420.627 746.413 410.995C743.898 409.101 740.798 408.15 737.654 408.307C737.654 408.307 713.798 423.36 704.995 438.861Z" fill="#FAFAFA"/>
<path d="M695.475 439.04C695.475 439.04 692.518 426.451 706.675 412.362C704.973 411.264 699.037 413.37 699.037 413.37C699.037 413.37 681.834 423.114 684.589 443.139C687.558 440.428 691.455 438.96 695.475 439.04Z" fill="#FAFAFA"/>
<path d="M715.344 369.6C716.064 368.918 716.717 368.168 717.293 367.36C717.334 367.307 717.363 367.246 717.379 367.181C717.394 367.116 717.396 367.048 717.383 366.982C717.37 366.917 717.344 366.854 717.305 366.8C717.266 366.745 717.216 366.699 717.158 366.666C717.056 366.576 716.925 366.526 716.789 366.526C716.653 366.526 716.521 366.576 716.419 366.666C715.104 368.447 713.404 369.908 711.445 370.94C709.486 371.971 707.32 372.547 705.107 372.624C705.032 372.608 704.954 372.609 704.88 372.627C704.805 372.645 704.736 372.679 704.676 372.728C704.616 372.776 704.568 372.837 704.535 372.906C704.502 372.976 704.485 373.051 704.485 373.128C704.485 373.205 704.502 373.281 704.535 373.35C704.568 373.419 704.616 373.48 704.676 373.528C704.736 373.577 704.805 373.611 704.88 373.629C704.954 373.647 705.032 373.648 705.107 373.632C708.894 373.569 712.531 372.136 715.344 369.6Z" fill="#2B3F4C"/>
<path d="M517.955 932.378H514.013L496.989 604.598C496.742 599.828 494.673 595.335 491.209 592.046C487.745 588.757 483.151 586.924 478.374 586.925H418.88C414.101 586.924 409.504 588.756 406.037 592.045C402.569 595.333 400.496 599.826 400.243 604.598L383.219 932.378H379.277L396.48 604.397C396.777 598.646 399.263 593.226 403.428 589.248C407.593 585.271 413.121 583.037 418.88 583.005H478.307C484.089 583.003 489.651 585.221 493.845 589.202C498.038 593.183 500.543 598.622 500.842 604.397L517.955 932.378Z" fill="#FF8E05"/>
<path opacity="0.7" d="M517.955 932.378H514.013L496.989 604.598C496.742 599.828 494.673 595.335 491.209 592.046C487.745 588.757 483.151 586.924 478.374 586.925H418.88C414.101 586.924 409.504 588.756 406.037 592.045C402.569 595.333 400.496 599.826 400.243 604.598L383.219 932.378H379.277L396.48 604.397C396.777 598.646 399.263 593.226 403.428 589.248C407.593 585.271 413.121 583.037 418.88 583.005H478.307C484.089 583.003 489.651 585.221 493.845 589.202C498.038 593.183 500.543 598.622 500.842 604.397L517.955 932.378Z" fill="white"/>
<path d="M739.603 932.378H735.661L718.637 604.598C718.39 599.828 716.321 595.335 712.857 592.046C709.393 588.757 704.799 586.924 700.023 586.925H640.64C635.861 586.924 631.264 588.756 627.797 592.045C624.329 595.333 622.256 599.826 622.003 604.598L604.979 932.378H600.992L618.061 604.397C618.36 598.615 620.871 593.169 625.074 589.187C629.277 585.205 634.85 582.991 640.64 583.005H700.067C705.849 583.003 711.411 585.221 715.605 589.202C719.798 593.183 722.303 598.622 722.602 604.397L739.603 932.378Z" fill="#FF8E05"/>
<path opacity="0.7" d="M739.603 932.378H735.661L718.637 604.598C718.39 599.828 716.321 595.335 712.857 592.046C709.393 588.757 704.799 586.924 700.023 586.925H640.64C635.861 586.924 631.264 588.756 627.797 592.045C624.329 595.333 622.256 599.826 622.003 604.598L604.979 932.378H600.992L618.061 604.397C618.36 598.615 620.871 593.169 625.074 589.187C629.277 585.205 634.85 582.991 640.64 583.005H700.067C705.849 583.003 711.411 585.221 715.605 589.202C719.798 593.183 722.303 598.622 722.602 604.397L739.603 932.378Z" fill="white"/>
<path d="M731.987 570.528H385.706V589.568H731.987V570.528Z" fill="#FF8E05"/>
<path opacity="0.3" d="M731.987 570.528H612.192V589.568H731.987V570.528Z" fill="black"/>
<path d="M639.923 565.936H476.963C476.369 565.936 475.799 566.172 475.379 566.592C474.959 567.012 474.723 567.582 474.723 568.176C474.723 568.77 474.959 569.34 475.379 569.76C475.799 570.18 476.369 570.416 476.963 570.416H639.923C640.517 570.416 641.087 570.18 641.507 569.76C641.927 569.34 642.163 568.77 642.163 568.176C642.163 567.582 641.927 567.012 641.507 566.592C641.087 566.172 640.517 565.936 639.923 565.936Z" fill="#FF8E05"/>
<path opacity="0.1" d="M639.923 565.936H476.963C476.369 565.936 475.799 566.172 475.379 566.592C474.959 567.012 474.723 567.582 474.723 568.176C474.723 568.77 474.959 569.34 475.379 569.76C475.799 570.18 476.369 570.416 476.963 570.416H639.923C640.517 570.416 641.087 570.18 641.507 569.76C641.927 569.34 642.163 568.77 642.163 568.176C642.163 567.582 641.927 567.012 641.507 566.592C641.087 566.172 640.517 565.936 639.923 565.936Z" fill="#FF791A"/>
<path d="M598.954 570.528H466.794C465.554 570.465 464.365 570.014 463.397 569.238C462.428 568.462 461.727 567.401 461.395 566.205L442.803 490.493C442.636 489.986 442.594 489.447 442.681 488.921C442.768 488.395 442.982 487.898 443.304 487.473C443.625 487.047 444.045 486.707 444.528 486.48C445.011 486.253 445.541 486.146 446.074 486.17H578.234C579.476 486.231 580.668 486.682 581.641 487.457C582.614 488.233 583.318 489.295 583.654 490.493L602.246 566.205C602.415 566.713 602.456 567.254 602.368 567.782C602.28 568.31 602.064 568.809 601.74 569.235C601.416 569.66 600.992 570.001 600.507 570.226C600.021 570.451 599.488 570.555 598.954 570.528Z" fill="#FF8E05"/>
<path opacity="0.3" d="M598.954 570.528H466.794C465.554 570.465 464.365 570.014 463.397 569.238C462.428 568.462 461.727 567.401 461.395 566.205L442.803 490.493C442.636 489.986 442.594 489.447 442.681 488.921C442.768 488.395 442.982 487.898 443.304 487.473C443.625 487.047 444.045 486.707 444.528 486.48C445.011 486.253 445.541 486.146 446.074 486.17H578.234C579.476 486.231 580.668 486.682 581.641 487.457C582.614 488.233 583.318 489.295 583.654 490.493L602.246 566.205C602.415 566.713 602.456 567.254 602.368 567.782C602.28 568.31 602.064 568.809 601.74 569.235C601.416 569.66 600.992 570.001 600.507 570.226C600.021 570.451 599.488 570.555 598.954 570.528Z" fill="#242BAD"/>
<path d="M560 547.501H559.798C559.717 547.473 559.643 547.43 559.578 547.373C559.514 547.316 559.462 547.247 559.424 547.17C559.387 547.093 559.365 547.01 559.36 546.924C559.355 546.839 559.367 546.753 559.395 546.672C561.698 540.406 561.586 533.507 559.082 527.318C558.902 527.632 558.701 527.923 558.499 528.214C556.816 530.259 554.409 531.575 551.779 531.888C549.559 532.287 547.271 532.062 545.171 531.238C544.101 530.818 543.124 530.19 542.297 529.39C541.471 528.591 540.811 527.635 540.355 526.579C539.9 525.483 539.737 524.288 539.882 523.11C540.027 521.932 540.476 520.812 541.184 519.859C544.387 515.738 550.95 516.701 554.445 518.963C556.318 520.272 557.853 522.007 558.925 524.026C559.002 523.671 559.055 523.312 559.082 522.95C559.246 521.567 559.093 520.165 558.635 518.849C558.177 517.533 557.426 516.339 556.438 515.357C554.725 513.777 552.706 512.565 550.506 511.795C548.307 511.024 545.973 510.712 543.648 510.877C542.007 510.968 540.387 511.285 538.832 511.818C538.753 511.846 538.668 511.857 538.585 511.852C538.501 511.847 538.419 511.825 538.343 511.787C538.268 511.749 538.201 511.697 538.147 511.633C538.092 511.569 538.051 511.495 538.026 511.414C537.974 511.257 537.985 511.085 538.056 510.936C538.127 510.786 538.252 510.668 538.406 510.608C540.078 510.041 541.818 509.702 543.581 509.6C546.088 509.422 548.604 509.762 550.974 510.598C553.344 511.434 555.517 512.749 557.357 514.461C558.467 515.584 559.313 516.942 559.832 518.434C560.351 519.926 560.531 521.515 560.358 523.085C560.277 523.976 560.096 524.855 559.821 525.706C562.882 532.416 563.172 540.063 560.627 546.986C560.601 547.132 560.523 547.264 560.408 547.358C560.293 547.453 560.149 547.503 560 547.501ZM547.635 518.381C546.61 518.31 545.582 518.475 544.631 518.863C543.679 519.251 542.83 519.853 542.147 520.621C541.581 521.388 541.224 522.288 541.11 523.234C540.996 524.18 541.13 525.14 541.498 526.019C541.885 526.921 542.446 527.737 543.15 528.421C543.853 529.105 544.685 529.644 545.597 530.006C547.487 530.734 549.54 530.928 551.533 530.566C553.853 530.313 555.983 529.163 557.469 527.363C557.846 526.873 558.148 526.329 558.365 525.75C557.327 523.466 555.714 521.49 553.683 520.016C551.861 518.909 549.768 518.327 547.635 518.336V518.381Z" fill="white"/>
<path d="M573.082 538.854H543.805L546.874 570.528H570.013L573.082 538.854Z" fill="#FF8E05"/>
<path d="M557.984 514.483C557.083 514.489 556.186 514.369 555.318 514.125C555.209 514.089 555.112 514.025 555.037 513.938C554.962 513.851 554.912 513.745 554.893 513.632C554.702 512.032 554.909 510.41 555.495 508.91C556.081 507.41 557.028 506.077 558.253 505.03C561.566 502.698 565.422 501.256 569.453 500.842C569.557 500.831 569.663 500.846 569.76 500.885C569.858 500.924 569.945 500.986 570.013 501.066C570.078 501.141 570.125 501.232 570.148 501.329C570.172 501.427 570.171 501.528 570.147 501.626C569.114 505.58 567.086 509.205 564.256 512.154C562.51 513.653 560.286 514.479 557.984 514.483ZM556.102 513.005C557.392 513.297 558.733 513.283 560.017 512.964C561.3 512.645 562.491 512.03 563.494 511.168C565.95 508.66 567.744 505.581 568.714 502.208C565.244 502.641 561.934 503.926 559.082 505.949C558.08 506.81 557.29 507.891 556.774 509.107C556.257 510.322 556.027 511.641 556.102 512.96V513.005Z" fill="white"/>
<path d="M535.36 530.499C533.137 530.389 530.955 529.857 528.931 528.931C528.874 528.898 528.824 528.852 528.786 528.798C528.747 528.744 528.72 528.683 528.707 528.618C528.696 528.551 528.703 528.483 528.726 528.42C528.75 528.357 528.79 528.302 528.842 528.259C530.717 526.428 533.031 525.109 535.562 524.429C536.592 524.264 537.646 524.354 538.634 524.689C539.622 525.025 540.512 525.597 541.229 526.355C541.262 526.421 541.28 526.494 541.28 526.568C541.28 526.642 541.262 526.715 541.229 526.781C540.795 527.728 540.135 528.555 539.307 529.188C538.479 529.82 537.508 530.24 536.48 530.41C536.109 530.466 535.735 530.496 535.36 530.499ZM529.827 528.438C531.938 529.371 534.246 529.771 536.547 529.603C537.392 529.459 538.192 529.123 538.887 528.623C539.581 528.122 540.153 527.469 540.557 526.714C539.936 526.12 539.187 525.677 538.367 525.421C537.547 525.165 536.679 525.101 535.83 525.235C533.624 525.795 531.592 526.896 529.917 528.438H529.827Z" fill="white"/>
</g>
<defs>
<filter id="filter0_f_223_200" x="-166.2" y="116.8" width="1510.4" height="1200.4" filterUnits="userSpaceOnUse" color-interpolation-filters="sRGB">
<feFlood flood-opacity="0" result="BackgroundImageFix"/>
<feBlend mode="normal" in="SourceGraphic" in2="BackgroundImageFix" result="shape"/>
<feGaussianBlur stdDeviation="188.1" result="effect1_foregroundBlur_223_200"/>
</filter>
<clipPath id="clip0_223_200">
<rect width="1120" height="1120" fill="white"/>
</clipPath>
</defs>
</svg>
