<svg width="414" height="544" viewBox="0 0 414 544" fill="none" xmlns="http://www.w3.org/2000/svg">
<path d="M344.221 80.7043L93.9888 8.34811C90.0383 7.16149 85.8842 6.80961 81.7905 7.3148C77.6967 7.81999 73.7528 9.17118 70.2093 11.2826C66.6659 13.394 63.6004 16.2194 61.2076 19.5793C58.8148 22.9392 57.1471 26.76 56.3104 30.7991L-62.1274 574.821C-63.8545 583.33 -62.3516 592.177 -57.9116 599.638C-53.4715 607.099 -46.4125 612.64 -38.1102 615.18L212.122 687.536C216.077 688.729 220.237 689.083 224.337 688.576C228.437 688.07 232.386 686.713 235.932 684.594C239.477 682.474 242.542 679.638 244.93 676.267C247.317 672.896 248.975 669.064 249.798 665.016L368.235 120.994C369.944 112.496 368.432 103.666 363.994 96.2205C359.556 88.7746 352.509 83.2444 344.221 80.7043Z" fill="#FF8E05"/>
<path opacity="0.3" d="M344.221 80.7043L93.9888 8.34811C90.0383 7.16149 85.8842 6.80961 81.7905 7.3148C77.6967 7.81999 73.7528 9.17118 70.2093 11.2826C66.6659 13.394 63.6004 16.2194 61.2076 19.5793C58.8148 22.9392 57.1471 26.76 56.3104 30.7991L-62.1274 574.821C-63.8545 583.33 -62.3516 592.177 -57.9116 599.638C-53.4715 607.099 -46.4125 612.64 -38.1102 615.18L212.122 687.536C216.077 688.729 220.237 689.083 224.337 688.576C228.437 688.07 232.386 686.713 235.932 684.594C239.477 682.474 242.542 679.638 244.93 676.267C247.317 672.896 248.975 669.064 249.798 665.016L368.235 120.994C369.944 112.496 368.432 103.666 363.994 96.2205C359.556 88.7746 352.509 83.2444 344.221 80.7043Z" fill="white"/>
<path d="M-45.5381 585.528C-45.9556 587.611 -47.1182 589.471 -48.8084 590.759C-50.4985 592.047 -52.6001 592.675 -54.7197 592.525C-56.8393 592.374 -58.8315 591.457 -60.3231 589.943C-61.8147 588.43 -62.7035 586.425 -62.823 584.303C-63.0451 581.162 -62.8209 578.005 -62.1573 574.926L56.3108 30.7991C56.9673 27.7331 58.0808 24.7832 59.6141 22.0482C60.6137 20.1713 62.2638 18.7236 64.2548 17.9765C66.2458 17.2294 68.4409 17.2343 70.4285 17.9904C72.4162 18.7464 74.0597 20.2016 75.0509 22.083C76.0421 23.9644 76.3129 26.1428 75.8124 28.2096L-45.5381 585.528Z" fill="#FF8E05"/>
<path d="M215.015 677.53L-17.4704 610.305C-23.1976 608.48 -28.0558 604.617 -31.1237 599.448C-34.1917 594.279 -35.2561 588.163 -34.1152 582.262L84.3166 38.2608C84.8317 35.6176 85.8972 33.1124 87.4439 30.908C88.9906 28.7036 90.9839 26.8493 93.2941 25.4657C95.6044 24.082 98.1799 23.2 100.853 22.8769C103.527 22.5538 106.238 22.7969 108.812 23.5904L341.298 90.8151C347.022 92.6389 351.878 96.4986 354.947 101.663C358.015 106.828 359.083 112.939 357.948 118.838L239.511 662.86C238.989 665.5 237.92 668.001 236.372 670.202C234.823 672.402 232.83 674.254 230.522 675.636C228.213 677.019 225.641 677.902 222.97 678.228C220.299 678.554 217.589 678.317 215.015 677.53ZM108.163 25.8349C105.897 25.1344 103.508 24.9193 101.154 25.2036C98.799 25.4879 96.5306 26.2653 94.4965 27.4851C92.4623 28.7049 90.7081 30.3396 89.3481 32.2829C87.9882 34.2261 87.053 36.4341 86.6036 38.7629L-31.8039 582.68C-32.838 588.003 -31.8809 593.52 -29.1143 598.184C-26.3477 602.848 -21.9644 606.333 -16.7972 607.977L215.689 675.202C217.955 675.902 220.343 676.117 222.698 675.833C225.052 675.549 227.321 674.771 229.355 673.552C231.389 672.332 233.143 670.697 234.503 668.754C235.863 666.811 236.798 664.603 237.248 662.274L355.68 118.273C356.714 112.95 355.757 107.432 352.99 102.769C350.223 98.105 345.84 94.62 340.673 92.9757L108.163 25.8349Z" fill="white"/>
<g opacity="0.5">
<path d="M253.389 327.832C299.684 300.592 312.528 236.557 282.077 184.805C251.627 133.053 189.412 113.183 143.118 140.422C96.8227 167.662 83.9784 231.697 114.429 283.449C144.88 335.201 207.094 355.072 253.389 327.832Z" fill="#FF8E05"/>
<path d="M242.354 309.108C279.387 287.318 289.662 236.092 265.303 194.693C240.944 153.294 191.175 137.398 154.141 159.188C117.107 180.979 106.832 232.204 131.192 273.604C155.551 315.003 205.32 330.899 242.354 309.108Z" fill="white"/>
<path d="M231.286 290.452C259.061 274.115 266.773 235.701 248.511 204.65C230.248 173.6 192.927 161.673 165.151 178.009C137.376 194.346 129.664 232.76 147.926 263.81C166.189 294.86 203.51 306.788 231.286 290.452Z" fill="#FF8E05"/>
<path d="M220.306 271.638C238.828 260.739 243.967 235.12 231.784 214.415C219.602 193.71 194.711 185.761 176.188 196.659C157.666 207.557 152.527 233.177 164.71 253.882C176.893 274.586 201.784 282.536 220.306 271.638Z" fill="white"/>
<path d="M209.251 252.956C218.513 247.509 221.085 234.699 214.995 224.346C208.906 213.992 196.461 210.015 187.199 215.463C177.937 220.911 175.365 233.72 181.455 244.073C187.544 254.427 199.989 258.404 209.251 252.956Z" fill="#FF8E05"/>
</g>
<path d="M178.409 374.128C178.032 374.019 177.675 373.916 177.298 373.807C176.026 367.415 173.043 361.489 168.666 356.66C164.289 351.832 158.684 348.282 152.447 346.391C149.238 345.46 145.903 345.032 142.562 345.124C141.144 338.722 138.047 332.813 133.589 328.004C129.131 323.195 123.473 319.661 117.196 317.763C113.254 316.56 109.113 316.147 105.011 316.548C100.908 316.949 96.9257 318.156 93.291 320.1C89.6563 322.043 86.4411 324.685 83.8297 327.874C81.2184 331.063 79.2623 334.736 78.0737 338.683C74.8892 337.962 71.5926 337.887 68.3783 338.46C65.1641 339.034 62.0972 340.246 59.3587 342.024C56.6201 343.801 54.2653 346.11 52.4331 348.812C50.6009 351.515 49.3283 354.557 48.6905 357.759C47.2419 364.805 48.4787 372.139 52.158 378.321C55.8374 384.503 61.6939 389.086 68.5786 391.173L168.47 420.057C171.36 420.929 174.4 421.188 177.396 420.816C180.392 420.444 183.276 419.45 185.865 417.898C188.454 416.346 190.691 414.27 192.43 411.803C194.17 409.336 195.375 406.533 195.967 403.573C197.227 397.36 196.126 390.901 192.88 385.457C189.633 380.012 184.474 375.973 178.409 374.128Z" fill="white"/>
<path d="M312.604 148.46L311.744 148.211C310.752 143.231 308.425 138.614 305.013 134.853C301.6 131.092 297.231 128.328 292.37 126.857C289.867 126.127 287.265 125.789 284.659 125.854C283.549 120.868 281.133 116.266 277.658 112.521C274.183 108.776 269.775 106.023 264.885 104.544C258.698 102.657 252.015 103.304 246.304 106.34C240.594 109.377 236.321 114.556 234.425 120.74C231.942 120.179 229.371 120.121 226.864 120.569C224.358 121.017 221.967 121.962 219.831 123.348C217.695 124.734 215.859 126.534 214.429 128.641C213 130.748 212.006 133.119 211.507 135.616C210.384 141.106 211.35 146.817 214.217 151.632C217.084 156.447 221.645 160.018 227.007 161.646L304.872 184.162C307.127 184.848 309.499 185.054 311.838 184.768C314.177 184.481 316.429 183.708 318.451 182.499C320.473 181.289 322.22 179.67 323.578 177.745C324.936 175.819 325.877 173.631 326.338 171.321C327.286 166.486 326.407 161.471 323.869 157.248C321.332 153.025 317.318 149.893 312.604 148.46Z" fill="white"/>
<path opacity="0.3" d="M249.167 484.034L105.351 442.448C104.315 442.136 103.225 442.043 102.151 442.175C101.077 442.308 100.043 442.663 99.1145 443.218C98.1858 443.773 97.3833 444.516 96.7583 445.399C96.1332 446.283 95.6994 447.287 95.4846 448.347L76.514 535.807C76.0513 538.036 76.44 540.357 77.6035 542.313C78.7671 544.27 80.6211 545.719 82.8003 546.376L102.099 551.957L96.854 576.149L125.803 558.811L226.491 587.926C227.527 588.242 228.618 588.337 229.693 588.206C230.768 588.075 231.803 587.721 232.733 587.165C233.662 586.609 234.465 585.865 235.089 584.98C235.714 584.095 236.146 583.089 236.357 582.027L255.349 494.573C255.798 492.363 255.416 490.065 254.275 488.12C253.134 486.175 251.315 484.72 249.167 484.034Z" fill="white"/>
<path d="M231.752 540.098L97.7937 501.363L100.195 490.306L234.174 529.047L231.752 540.098Z" fill="white"/>
<path d="M184.395 550.817L92.8105 524.335L95.2123 513.278L186.797 539.76L184.395 550.817Z" fill="white"/>
<path d="M236.755 517.132L102.776 478.391L105.178 467.334L239.157 506.075L236.755 517.132Z" fill="white"/>
</svg>
