<svg xmlns="http://www.w3.org/2000/svg" width="805" height="946" viewBox="0 0 805 946" fill="none">
<path d="M433.586 3.09811C413.102 -1.0327 392.078 -1.0327 371.594 3.09811L34.6797 70.4482C14.5547 74.3995 0 92.1799 0 112.654C0 131.153 11.6797 147.317 28.75 153.244V285.071L0.539068 426.237C0.179693 427.853 0 429.649 0 431.445C0 445.813 11.6797 457.667 26.2344 457.667H88.9453C103.32 457.667 115.18 445.993 115.18 431.445C115.18 429.649 115 428.033 114.641 426.237L86.25 285.071V165.277L172.5 182.519V285.071C172.5 412.048 275.461 514.959 402.5 514.959C529.539 514.959 632.5 412.048 632.5 285.071V182.519L770.32 155.04C790.445 150.909 805 133.129 805 112.654C805 92.1799 790.445 74.3995 770.32 70.4482L433.586 3.09811ZM402.5 428.751C323.078 428.751 258.75 364.454 258.75 285.071H546.25C546.25 364.454 481.922 428.751 402.5 428.751ZM215.805 601.347C105.477 651.994 28.75 763.346 28.75 892.659C28.75 922.113 52.6484 946 82.1172 946H359.375V683.784L256.234 606.555C244.555 597.755 228.922 595.42 215.625 601.527L215.805 601.347ZM445.625 946H722.883C752.352 946 776.25 922.113 776.25 892.659C776.25 763.346 699.523 651.994 589.195 601.527C575.898 595.42 560.266 597.755 548.586 606.555L445.445 683.784V946H445.625Z" fill="black"/>
</svg>
